<?xml version="1.0" encoding="UTF-8"?>
<svg width="30px" height="30px" viewBox="0 0 30 30" version="1.1" xmlns="http://www.w3.org/2000/svg" xmlns:xlink="http://www.w3.org/1999/xlink">
    <!-- Generator: Sketch 50.2 (55047) - http://www.bohemiancoding.com/sketch -->
    <title>Rectangle 19</title>
    <desc>Created with Sketch.</desc>
    <defs></defs>
    <g id="Page-1" stroke="none" stroke-width="1" fill="none" fill-rule="evenodd">
        <g id="睡眠手动录入" transform="translate(-310.000000, -461.000000)">
            <g id="Group-21" transform="translate(310.000000, 461.000000)">
                <rect id="Rectangle-19" x="0" y="0" width="30" height="30"></rect>
                <ellipse id="Oval-Copy-7" fill="#81C1FF" cx="15" cy="27.5" rx="7" ry="2.5"></ellipse>
                <circle id="Oval-8-Copy-4" stroke="#2283E2" stroke-width="1.25" cx="15" cy="14" r="13"></circle>
                <path d="M6.39848634,10.6532652 C7.33452668,9.98659858 8.27056701,9.65326524 9.20660735,9.65326524 C10.1426477,9.65326524 11.078688,9.98659858 12.0147284,10.6532652" id="Path-49-Copy-3" stroke="#2283E2" stroke-width="1.25" stroke-linecap="round" stroke-linejoin="round"></path>
                <path d="M17.3984863,10.6532652 C18.3345267,9.98659858 19.270567,9.65326524 20.2066074,9.65326524 C21.1426477,9.65326524 22.078688,9.98659858 23.0147284,10.6532652" id="Path-49-Copy-2" stroke="#2283E2" stroke-width="1.25" stroke-linecap="round" stroke-linejoin="round"></path>
                <path d="M8,18 L22,18 C21.1518427,22.0510274 18.8185094,24.0510274 15,24 C11.1814906,23.9476707 8.84815728,21.9476707 8,18 Z" id="Path-50-Copy" stroke="#2283E2" stroke-width="1.25" fill="#81C1FF" stroke-linecap="round" stroke-linejoin="round"></path>
                <ellipse id="Oval-11" fill="#81C1FF" cx="23" cy="15" rx="2" ry="1"></ellipse>
                <ellipse id="Oval-11-Copy" fill="#81C1FF" cx="7" cy="15" rx="2" ry="1"></ellipse>
            </g>
        </g>
    </g>
</svg>