<?xml version="1.0" encoding="UTF-8"?>
<svg width="30px" height="30px" viewBox="0 0 30 30" version="1.1" xmlns="http://www.w3.org/2000/svg" xmlns:xlink="http://www.w3.org/1999/xlink">
    <!-- Generator: Sketch 50.2 (55047) - http://www.bohemiancoding.com/sketch -->
    <title>Rectangle-path</title>
    <desc>Created with Sketch.</desc>
    <defs></defs>
    <g id="Page-1" stroke="none" stroke-width="1" fill="none" fill-rule="evenodd">
        <g id="睡眠手动录入" transform="translate(-215.000000, -644.000000)" fill-rule="nonzero">
            <g id="温度计" transform="translate(215.000000, 644.000000)">
                <rect id="Rectangle-path" fill="#000000" opacity="0" x="0" y="0" width="30" height="30"></rect>
                <g id="Group-4" transform="translate(5.000000, 3.000000)">
                    <path d="M18.7159937,0.563250133 C17.3529241,-0.420155208 15.4510343,-0.0826551502 14.4898955,1.3168063 L6.04352426,13.6297394 C5.92993513,13.6239205 5.81343346,13.6181015 5.69693179,13.6181015 C2.55138663,13.6181015 0,16.1668088 0,19.3090508 C0,22.4512927 2.55138663,25 5.69693179,25 C8.84247695,25 11.3938636,22.4512927 11.3938636,19.3090508 C11.3938636,18.570042 11.2540616,17.8630376 10.9977579,17.2171323 L19.4499542,4.8954707 C20.411093,3.49600925 20.0790633,1.54665547 18.7159937,0.563250133 Z" id="Shape" stroke="#2283E2" stroke-width="1.25"></path>
                    <path d="M10.6253002,12.3582447 C10.1893627,12.0441822 9.5823314,12.1519947 9.27530015,12.5996509 L5.65246042,17.8615227 C5.61496042,17.859179 5.57980417,17.859179 5.54230417,17.859179 C4.53683542,17.859179 3.72121042,18.674804 3.72121042,19.6802727 C3.72121042,20.6857415 4.53683542,21.5013665 5.54230417,21.5013665 C6.54777292,21.5013665 7.36339792,20.6857415 7.36339792,19.6802727 C7.36339792,19.443554 7.31886667,19.218554 7.23683542,19.0099602 L10.8620189,13.7457447 C11.1667064,13.2980884 11.0612377,12.6746509 10.6253002,12.3582447 Z" id="Shape" stroke="#2283E2" fill="#81C1FF"></path>
                    <path d="M12.45625,8.96875 L10.7289063,7.8296875 C10.6,7.7453125 10.5648438,7.56953125 10.6492188,7.440625 L10.7265625,7.3234375 C10.8109375,7.19453125 10.9867188,7.159375 11.115625,7.24375 L12.8429688,8.3828125 C12.971875,8.4671875 13.0070313,8.64296875 12.9226563,8.771875 L12.8453125,8.8890625 C12.7609375,9.01796875 12.5875,9.053125 12.45625,8.96875 Z M11.4367188,10.5554687 L9.709375,9.4140625 C9.58046875,9.3296875 9.5453125,9.15390625 9.6296875,9.025 L9.70703125,8.9078125 C9.79140625,8.77890625 9.9671875,8.74375 10.0960938,8.828125 L11.8234375,9.9671875 C11.9523438,10.0515625 11.9875,10.2273437 11.903125,10.35625 L11.8257813,10.4734375 C11.7414063,10.6046875 11.565625,10.6398437 11.4367188,10.5554687 Z M13.4992188,7.50390625 L11.771875,6.36484375 C11.6429688,6.28046875 11.6078125,6.1046875 11.6921875,5.97578125 L11.7695313,5.85859375 C11.8539063,5.7296875 12.0296875,5.69453125 12.1585938,5.77890625 L13.8859375,6.91796875 C14.0148438,7.00234375 14.05,7.178125 13.965625,7.30703125 L13.8882813,7.42421875 C13.8039063,7.553125 13.628125,7.590625 13.4992188,7.50390625 Z M14.4132813,6.07421875 L12.6859375,4.93515625 C12.5570313,4.85078125 12.521875,4.675 12.60625,4.54609375 L12.6835938,4.42890625 C12.7679688,4.3 12.94375,4.26484375 13.0726563,4.34921875 L14.8,5.48828125 C14.9289063,5.57265625 14.9640625,5.7484375 14.8796875,5.87734375 L14.8023438,5.99453125 C14.7179688,6.1234375 14.5421875,6.15859375 14.4132813,6.07421875 Z" id="Shape" fill="#2283E2"></path>
                </g>
            </g>
        </g>
    </g>
</svg>