<?xml version="1.0" encoding="UTF-8"?>
<svg width="30px" height="30px" viewBox="0 0 30 30" version="1.1" xmlns="http://www.w3.org/2000/svg" xmlns:xlink="http://www.w3.org/1999/xlink">
    <!-- Generator: Sketch 50.2 (55047) - http://www.bohemiancoding.com/sketch -->
    <title>Rectangle-path</title>
    <desc>Created with Sketch.</desc>
    <defs></defs>
    <g id="Page-1" stroke="none" stroke-width="1" fill="none" fill-rule="evenodd">
        <g id="睡眠手动录入-icon未选择" transform="translate(-215.000000, -645.000000)" fill-rule="nonzero">
            <g id="温度计" transform="translate(215.000000, 645.000000)">
                <rect id="Rectangle-path" fill="#000000" opacity="0" x="0" y="0" width="30" height="30"></rect>
                <path d="M23.7159937,2.56325013 C22.3529241,1.57984479 20.4510343,1.91734485 19.4898955,3.3168063 L11.0435243,15.6297394 C10.9299351,15.6239205 10.8134335,15.6181015 10.6969318,15.6181015 C7.55138663,15.6181015 5,18.1668088 5,21.3090508 C5,24.4512927 7.55138663,27 10.6969318,27 C13.8424769,27 16.3938636,24.4512927 16.3938636,21.3090508 C16.3938636,20.570042 16.2540616,19.8630376 15.9977579,19.2171323 L24.4499542,6.8954707 C25.411093,5.49600925 25.0790633,3.54665547 23.7159937,2.56325013 Z" id="Shape" stroke="#999999" stroke-width="1.25"></path>
                <path d="M15.6253002,14.3582447 C15.1893627,14.0441822 14.5823314,14.1519947 14.2753002,14.5996509 L10.6524604,19.8615227 C10.6149604,19.859179 10.5798042,19.859179 10.5423042,19.859179 C9.53683542,19.859179 8.72121042,20.674804 8.72121042,21.6802727 C8.72121042,22.6857415 9.53683542,23.5013665 10.5423042,23.5013665 C11.5477729,23.5013665 12.3633979,22.6857415 12.3633979,21.6802727 C12.3633979,21.443554 12.3188667,21.218554 12.2368354,21.0099602 L15.8620189,15.7457447 C16.1667064,15.2980884 16.0612377,14.6746509 15.6253002,14.3582447 Z" id="Shape" stroke="#999999" stroke-width="1.25" fill="#DDDDDD"></path>
                <path d="M17.45625,10.96875 L15.7289063,9.8296875 C15.6,9.7453125 15.5648438,9.56953125 15.6492188,9.440625 L15.7265625,9.3234375 C15.8109375,9.19453125 15.9867188,9.159375 16.115625,9.24375 L17.8429688,10.3828125 C17.971875,10.4671875 18.0070313,10.6429687 17.9226563,10.771875 L17.8453125,10.8890625 C17.7609375,11.0179687 17.5875,11.053125 17.45625,10.96875 Z M16.4367188,12.5554687 L14.709375,11.4140625 C14.5804688,11.3296875 14.5453125,11.1539062 14.6296875,11.025 L14.7070313,10.9078125 C14.7914063,10.7789062 14.9671875,10.74375 15.0960938,10.828125 L16.8234375,11.9671875 C16.9523438,12.0515625 16.9875,12.2273437 16.903125,12.35625 L16.8257813,12.4734375 C16.7414063,12.6046875 16.565625,12.6398437 16.4367188,12.5554687 Z M18.4992188,9.50390625 L16.771875,8.36484375 C16.6429688,8.28046875 16.6078125,8.1046875 16.6921875,7.97578125 L16.7695313,7.85859375 C16.8539063,7.7296875 17.0296875,7.69453125 17.1585938,7.77890625 L18.8859375,8.91796875 C19.0148438,9.00234375 19.05,9.178125 18.965625,9.30703125 L18.8882813,9.42421875 C18.8039063,9.553125 18.628125,9.590625 18.4992188,9.50390625 Z M19.4132813,8.07421875 L17.6859375,6.93515625 C17.5570313,6.85078125 17.521875,6.675 17.60625,6.54609375 L17.6835938,6.42890625 C17.7679688,6.3 17.94375,6.26484375 18.0726563,6.34921875 L19.8,7.48828125 C19.9289063,7.57265625 19.9640625,7.7484375 19.8796875,7.87734375 L19.8023438,7.99453125 C19.7179688,8.1234375 19.5421875,8.15859375 19.4132813,8.07421875 Z" id="Shape" fill="#999999"></path>
            </g>
        </g>
    </g>
</svg>