<?xml version="1.0" encoding="UTF-8"?>
<svg width="30px" height="30px" viewBox="0 0 30 30" version="1.1" xmlns="http://www.w3.org/2000/svg" xmlns:xlink="http://www.w3.org/1999/xlink">
    <!-- Generator: Sketch 50.2 (55047) - http://www.bohemiancoding.com/sketch -->
    <title>Rectangle-path</title>
    <desc>Created with Sketch.</desc>
    <defs></defs>
    <g id="Page-1" stroke="none" stroke-width="1" fill="none" fill-rule="evenodd">
        <g id="睡眠手动录入" transform="translate(-301.000000, -734.000000)">
            <g id="套餐" transform="translate(301.000000, 734.000000)">
                <rect id="Rectangle-path" fill="#000000" fill-rule="nonzero" opacity="0" x="0" y="0" width="30" height="30"></rect>
                <path d="M15.1100918,24.1376147 C15.1100479,24.3675848 15.2327103,24.5801047 15.4318629,24.6951025 C15.6310156,24.8101002 15.8763944,24.8101002 16.0755471,24.6951025 C16.2746998,24.5801047 16.3973622,24.3675848 16.3973183,24.1376147 C16.3973622,23.9076446 16.2746998,23.6951246 16.0755471,23.5801269 C15.8763944,23.4651292 15.6310156,23.4651292 15.4318629,23.5801269 C15.2327103,23.6951246 15.1100479,23.9076446 15.1100918,24.1376147 Z M17.4135498,23.6294989 C17.4135059,23.8594691 17.5361683,24.071989 17.7353209,24.1869867 C17.9344736,24.3019845 18.1798525,24.3019845 18.3790051,24.1869867 C18.5781578,24.071989 18.7008202,23.8594691 18.7007763,23.6294989 C18.7008202,23.3995288 18.5781578,23.1870089 18.3790051,23.0720112 C18.1798525,22.9570134 17.9344736,22.9570134 17.7353209,23.0720112 C17.5361683,23.1870089 17.4135059,23.3995288 17.4135498,23.6294989 Z M19.4290755,22.5624559 C19.4290755,22.9179137 19.717231,23.2060692 20.0726888,23.2060692 C20.4281466,23.2060692 20.716302,22.9179137 20.716302,22.5624559 C20.716302,22.2069981 20.4281466,21.9188426 20.0726888,21.9188426 C19.717231,21.9188426 19.4290755,22.2069981 19.4290755,22.5624559 Z M13.534933,23.5109386 C9.48694425,22.9011997 6.42131264,19.3443896 6.42131264,15.2455893 C6.42131264,10.6386733 10.1644319,6.8786168 14.7882851,6.8786168 C16.1263232,6.8786168 17.3966126,7.18348624 18.582216,7.79322513 C18.853211,7.92872266 19.1750176,7.82709952 19.3274524,7.55610445 C19.4629499,7.28510939 19.3613268,6.96330277 19.0903317,6.81086803 C17.7522936,6.13338037 16.3126323,5.77769937 14.7882851,5.77769937 C9.5716302,5.77769937 5.33733239,10.0119972 5.33733239,15.2286521 C5.33733239,19.8694425 8.79251941,23.900494 13.3824982,24.5779816 L13.4671842,24.5779816 C13.7381793,24.5779816 13.9752999,24.3747353 14.0091743,24.1037403 C14.0430487,23.8327452 13.8398024,23.544813 13.534933,23.5109386 Z M14.7713479,10.6386732 C12.2307692,10.6386732 10.1644319,12.7050106 10.1644319,15.2455893 C10.1644319,17.786168 12.2307692,19.8525053 14.7713479,19.8525053 C17.3119266,19.8525053 19.3782639,17.786168 19.3782639,15.2455893 C19.3782639,12.7050106 17.3119266,10.6386733 14.7713479,10.6386732 Z M24.340861,5.5067043 C24.0359915,5.20183486 23.6972477,5.11714891 23.5278758,5.08327453 C23.4262526,5.06633735 23.3076923,5.04940015 23.189132,5.04940015 C22.9011997,5.04940015 22.664079,5.11714891 22.5793931,5.13408609 C20.885674,5.67607622 19.8355681,8.14890614 19.8355681,11.587156 C19.8355681,13.805928 20.1235003,14.4326041 20.7332392,15.2625265 C20.9364855,15.5335215 21.1397318,15.8214538 21.3768525,16.4142555 C21.3937897,16.4481299 21.51235,16.8376852 21.51235,17.5829217 L21.51235,23.4093154 C21.51235,24.1037403 22.0712773,24.6626676 22.7657022,24.6626676 L23.3923783,24.6626676 C23.9174312,24.6626676 24.3747354,24.3239238 24.5441073,23.7988709 C24.611856,23.5786874 24.6457304,23.3246295 24.6457304,22.9350741 L24.6626676,6.26887791 L24.6626676,5.81157375 L24.340861,5.5067043 Z M23.5617502,22.9520113 C23.5617502,23.5109386 23.4940014,23.5786874 23.4093154,23.5786874 L22.7826394,23.5786874 C22.6979534,23.5786874 22.6302047,23.5109386 22.6302047,23.4262526 L22.6302047,17.5998589 C22.6302047,16.5328158 22.4100212,16.0247001 22.4100212,16.0247001 C21.5800988,13.9752999 20.9534227,14.8221595 20.9534227,11.6040932 C20.9534227,8.38602684 21.9019054,6.52293579 22.9350741,6.20112914 C22.9350741,6.20112914 23.0536344,6.16725476 23.2060692,6.16725476 C23.2568807,6.16725476 23.3076923,6.16725476 23.3585039,6.18419196 C23.3585039,6.18419196 23.4940014,6.20112914 23.5956246,6.30275229 L23.5617502,22.9520113 Z" id="Shape" stroke="#2283E2" stroke-width="0.2" fill="#2283E2" fill-rule="nonzero"></path>
                <path d="M14.7713479,18.7515879 C12.8405081,18.7515879 11.2653493,17.1764291 11.2653493,15.2455893 C11.2653493,13.3147495 12.8405081,11.7395907 14.7713479,11.7395907 C16.7021877,11.7395907 18.2773465,13.3147495 18.2773465,15.2455893 C18.2942837,17.1764291 16.7191249,18.7515879 14.7713479,18.7515879 Z" id="Path" fill="#81C1FF"></path>
            </g>
        </g>
    </g>
</svg>