<?xml version="1.0" encoding="UTF-8"?>
<svg width="30px" height="30px" viewBox="0 0 30 30" version="1.1" xmlns="http://www.w3.org/2000/svg" xmlns:xlink="http://www.w3.org/1999/xlink">
    <!-- Generator: Sketch 50.2 (55047) - http://www.bohemiancoding.com/sketch -->
    <title>Rectangle-path</title>
    <desc>Created with Sketch.</desc>
    <defs></defs>
    <g id="Page-1" stroke="none" stroke-width="1" fill="none" fill-rule="evenodd">
        <g id="睡眠手动录入" transform="translate(-130.000000, -644.000000)">
            <g id="声音" transform="translate(130.000000, 644.000000)">
                <rect id="Rectangle-path" fill="#000000" fill-rule="nonzero" opacity="0" x="0" y="0" width="30" height="30"></rect>
                <path d="M9.857369,3.68168755 C9.21504851,3.03860031 8.24832007,2.84631956 7.40880384,3.19467184 C6.5683376,3.54221192 6.02025395,4.36211902 6.02043442,5.27160656 L6.01968517,15.5791068 L3.68200973,17.9182808 C3.26025148,18.3396039 3.02327355,18.9113019 3.02327355,19.5074505 C3.02327355,20.1035992 3.26025148,20.6752972 3.68200973,21.0966203 L8.92679436,26.3414049 C9.36585776,26.7804683 9.9405363,27 10.5159641,27 C11.0913919,27 11.6660704,26.7804683 12.1051338,26.3414049 L14.4435585,24.0029802 L24.7503096,24.0029802 C25.6606543,24.0029802 26.4803392,23.4560241 26.826495,22.6153601 C27.1751008,21.7753854 26.9828258,20.8080939 26.3394793,20.1652964 L9.857369,3.68168755 Z" id="Path" stroke="#2283E2" stroke-width="1.25"></path>
                <path d="M6.01828763,4.43215384 L25.4661209,23.8487882" id="Path-3" stroke="#2283E2"></path>
                <path d="M5.83598198,15.6589478 L14.3473399,24.2422075 L11.251968,27.3672654 C10.8641121,27.758841 10.2325467,27.7627749 9.83984304,27.3760612 L2.57353823,20.2205918 C2.18002427,19.8330802 2.17515836,19.1999339 2.56266992,18.80642 C2.56907,18.7999207 2.5755587,18.7935094 2.5821342,18.7871877 L5.83598198,15.6589478 Z" id="Path-4" stroke="#2283E2" fill="#81C1FF"></path>
                <path d="M16.5856477,6.36624398 C18.763532,6.71492066 20.4358406,7.48530838 21.6025732,8.67740713 C22.7693059,9.86950589 23.4304627,11.4833157 23.5860437,13.5188365" id="Path-53" stroke="#2283E2" stroke-width="1.25" stroke-linecap="round"></path>
                <path d="M16.2323039,3.70964615 C19.3698953,4.03124669 21.7677734,5.02736399 23.4259382,6.69799807 C25.084103,8.36863215 26.0025545,10.713783 26.1812927,13.7334506" id="Path-55" stroke="#2283E2" stroke-width="1.25" stroke-linecap="round"></path>
            </g>
        </g>
    </g>
</svg>