<?xml version="1.0" encoding="UTF-8"?>
<svg width="30px" height="30px" viewBox="0 0 30 30" version="1.1" xmlns="http://www.w3.org/2000/svg" xmlns:xlink="http://www.w3.org/1999/xlink">
    <!-- Generator: Sketch 50.2 (55047) - http://www.bohemiancoding.com/sketch -->
    <title>Rectangle 6</title>
    <desc>Created with Sketch.</desc>
    <defs></defs>
    <g id="Page-1" stroke="none" stroke-width="1" fill="none" fill-rule="evenodd">
        <g id="睡眠手动录入" transform="translate(-16.000000, -284.000000)">
            <g id="Group-Copy" transform="translate(16.000000, 284.000000)">
                <rect id="Rectangle-6" x="0" y="0" width="30" height="30"></rect>
                <path d="M1.60124969,22.7722948 L1.60124969,23.4656572 C1.60124969,24.0342658 2.06219804,24.4952141 2.63080664,24.4952141 L2.63080664,24.4952141 C3.19941524,24.4952141 3.66036359,24.0342658 3.66036359,23.4656572 L3.66036359,22.7722948 L1.60124969,22.7722948 Z" id="Path-37" fill="#2283E2"></path>
                <path d="M25.7830679,22.7722948 L25.7830679,23.4656572 C25.7830679,24.0342658 26.2440162,24.4952141 26.8126248,24.4952141 L26.8126248,24.4952141 C27.3812334,24.4952141 27.8421818,24.0342658 27.8421818,23.4656572 L27.8421818,22.7722948 L25.7830679,22.7722948 Z" id="Path-37-Copy" fill="#2283E2"></path>
                <path d="M6.25,11.25 L23.75,11.25 L27.8685345,15.1724138 C28.1184909,15.4104676 28.12814,15.806078 27.8900862,16.0560345 C27.772122,16.1798969 27.6085481,16.25 27.4375,16.25 L2.5625,16.25 C2.21732203,16.25 1.9375,15.970178 1.9375,15.625 C1.9375,15.4539519 2.00760311,15.290378 2.13146552,15.1724138 L6.25,11.25 Z" id="Path-35" stroke="#2283E2" stroke-width="1.25"></path>
                <path d="M1,17.5 L1,21 C1,21.6903559 1.55964406,22.25 2.25,22.25 L27.75,22.25 C28.4403559,22.25 29,21.6903559 29,21 L29,17.5 C29,16.8096441 28.4403559,16.25 27.75,16.25 L2.25,16.25 C1.55964406,16.25 1,16.8096441 1,17.5 Z" id="Path-36" stroke="#2283E2" stroke-width="1.25"></path>
                <path d="M6.40553151,11.3350638 L6.40553151,6.93628481 C6.40553151,6.24592887 6.96517558,5.68628481 7.65553151,5.68628481 L22.7528062,5.68628481 C23.4431621,5.68628481 24.0028062,6.24592887 24.0028062,6.93628481 L24.0028062,11.3350638 L6.40553151,11.3350638 Z" id="Path-38" stroke="#2283E2" stroke-width="1.25"></path>
                <path d="M6.17417541,11.3616589 C10.2064255,12.7297092 13.6853846,9.52357553 16.0853635,11.0138889 C18.4853424,12.5042023 18.2296327,16.1851705 21.7044635,16.3060637 C24.0210174,16.3866592 17.3712397,16.442322 1.75513041,16.4730522 L6.17417541,11.3616589 Z" id="Path-2" stroke="#2283E2" fill="#81C1FF"></path>
            </g>
        </g>
    </g>
</svg>