<?xml version="1.0" encoding="UTF-8"?>
<svg width="30px" height="30px" viewBox="0 0 30 30" version="1.1" xmlns="http://www.w3.org/2000/svg" xmlns:xlink="http://www.w3.org/1999/xlink">
    <!-- Generator: Sketch 50.2 (55047) - http://www.bohemiancoding.com/sketch -->
    <title>Rectangle 8</title>
    <desc>Created with Sketch.</desc>
    <defs></defs>
    <g id="Page-1" stroke="none" stroke-width="1" fill="none" fill-rule="evenodd">
        <g id="睡眠手动录入-icon未选择" transform="translate(-43.000000, -645.000000)">
            <g id="Group-22" transform="translate(43.000000, 645.000000)">
                <rect id="Rectangle-8" fill="#D8D8D8" opacity="0" x="0" y="0" width="30" height="30"></rect>
                <path d="M14.9996921,6.33333333 C11.3236336,6.33333333 8.33333333,9.30354073 8.33333333,12.9545962 C8.33333333,14.4068916 9.19707467,15.7141079 9.95889145,16.8669144 C10.4078522,17.5462575 10.8315627,18.1879765 10.9267129,18.6674597 C11.1946112,20.021631 11.34796,23.2332355 11.3494996,23.2654419 C11.3599692,23.4899833 11.5490377,23.6666667 11.7793687,23.6666667 L18.2206313,23.6666667 C18.3388761,23.6666667 18.4515781,23.6191096 18.5331794,23.5351324 C18.6144727,23.4508541 18.656659,23.3379814 18.6501925,23.2227007 C18.5701309,21.8152534 18.6252502,19.3194124 19.1145497,18.6129798 C19.1992302,18.4907763 19.2965358,18.355329 19.4021555,18.2072401 C20.2489607,17.0258392 21.6666667,15.0474065 21.6666667,12.9542952 C21.6660508,9.30384172 18.6757506,6.33333333 14.9996921,6.33333333 Z" id="Shape" stroke="#999999" stroke-width="1.25" fill-rule="nonzero" transform="translate(15.000000, 15.000000) scale(1, -1) translate(-15.000000, -15.000000) "></path>
                <path d="M17.6666667,1 L17.6666667,4.24636377 C17.6666667,4.85695007 17.3417398,5.36947069 16.8924095,5.55690508 C16.8091455,6.00104963 16.4842186,6.33333333 16.0940108,6.33333333 L13.9059892,6.33333333 C13.5157814,6.33333333 13.1908545,6.00134953 13.1075905,5.55690508 C12.6582602,5.36947069 12.3333333,4.85695007 12.3333333,4.24636377 L12.3333333,1 L17.6666667,1 Z" id="Path" stroke="#999999" stroke-width="1.25" fill="#DDDDDD" transform="translate(15.000000, 3.666667) scale(1, -1) translate(-15.000000, -3.666667) "></path>
                <path d="M15,26.3333333 L15,28.5563257 M9.00064898,24.1497481 L7.57173701,25.8526591 M5.80846097,18.6207163 L3.61924083,19.0067349 M6.91709623,12.3333333 L4.99192835,11.2218371 M23.0829038,12.3333333 L25.0080717,11.2218371 M24.191539,18.6207163 L26.3807592,19.0067349 M20.999351,24.1497481 L22.428263,25.8526591" id="Path-51" stroke="#999999" stroke-width="1.25" stroke-linecap="round" stroke-linejoin="round"></path>
                <path d="M15,12.2916539 L15,17.644187" id="Path-52" stroke="#999999" stroke-width="1.25" stroke-linecap="round" stroke-linejoin="round"></path>
                <path d="M12.2693685,18.3333333 L17.7710581,18.3333333" id="Path-54" stroke="#999999" stroke-width="1.25" stroke-linecap="round" stroke-linejoin="round"></path>
            </g>
        </g>
    </g>
</svg>