<?xml version="1.0" encoding="UTF-8"?>
<svg width="30px" height="30px" viewBox="0 0 30 30" version="1.1" xmlns="http://www.w3.org/2000/svg" xmlns:xlink="http://www.w3.org/1999/xlink">
    <!-- Generator: Sketch 50.2 (55047) - http://www.bohemiancoding.com/sketch -->
    <title>Rectangle 10</title>
    <desc>Created with Sketch.</desc>
    <defs></defs>
    <g id="Page-1" stroke="none" stroke-width="1" fill="none" fill-rule="evenodd">
        <g id="睡眠手动录入-icon未选择" transform="translate(-42.000000, -734.000000)">
            <g id="炸弹" transform="translate(42.000000, 734.000000)">
                <rect id="Rectangle-10" fill="#D8D8D8" opacity="0" x="0" y="0" width="30" height="30"></rect>
                <path d="M7.02773495,14.4755415 C7.14717346,14.546891 7.29007174,14.5678474 7.4249675,14.5337968 C7.55986326,14.4997461 7.67569624,14.4134801 7.74696317,14.2939923 C7.90025516,14.0373944 8.07674848,13.7953902 8.2742274,13.5710177 C8.39800721,13.4303199 8.43732308,13.2342741 8.37736512,13.0567287 C8.31740715,12.8791834 8.16728439,12.7471119 7.98354662,12.7102643 C7.79980886,12.6734168 7.61037023,12.7373912 7.48659043,12.878089 C7.24682346,13.1507444 7.03246458,13.4447323 6.84618582,13.7563881 C6.69774234,14.005112 6.77902242,14.327079 7.02773495,14.4755415 Z M10.7910392,21.6073575 C8.15359426,20.9528665 6.54025719,18.2745861 7.19467321,15.6369913 C7.22819792,15.5019893 7.20670483,15.3591985 7.13492456,15.2400472 C7.06314429,15.1208959 6.94696003,15.0351498 6.81194399,15.0016817 C6.67694312,14.9681778 6.53416199,14.9896799 6.41501589,15.061457 C6.29586979,15.1332341 6.21012032,15.2494056 6.17663443,15.384411 C5.38285342,18.5832871 7.33958282,21.8316153 10.5385339,22.6254712 C10.5799734,22.635819 10.6225242,22.6410529 10.6652361,22.6410561 C10.9304387,22.6411087 11.1539512,22.4431885 11.1859904,22.1799284 C11.2180297,21.9166683 11.048513,21.6709156 10.7910392,21.6073575 Z" id="Shape" fill="#999999" fill-rule="nonzero"></path>
                <circle id="Oval-2" fill="#DDDDDD" cx="25.5" cy="16" r="1"></circle>
                <path d="M27.431507,16.1177859 L26.7469701,15.7652524 L27.3229372,15.2543224 C27.3974788,15.1881691 27.4195606,15.0808307 27.3771853,14.9906252 C27.3348099,14.9004196 27.2380963,14.848887 27.1395898,14.8640255 L26.53028,14.9578346 C27.2034279,13.6170835 27.0591926,11.9450033 26.0300646,10.7296806 C25.9604741,10.6473624 25.8670723,10.588646 25.7627236,10.5616184 C25.6980822,10.5342535 25.6285917,10.5201872 25.5583966,10.5202585 C24.002379,10.5202585 22.7432238,9.26664794 22.737829,7.7211951 C22.7374872,7.64289808 22.719509,7.56568417 22.6852299,7.49528896 C22.6019856,6.59690927 22.2111642,5.76386627 21.5631919,5.12046456 C20.8352721,4.39756487 19.8705816,4.00000002 18.8452749,4 C17.8008617,4.00359651 16.8334738,4.40827947 16.1073523,5.13949612 C15.4575068,5.79398709 15.0714808,6.64006743 15,7.54931162 L16.0370704,7.80668727 C16.0499579,7.07921702 16.3372296,6.39655335 16.8516063,5.87865505 C17.3802941,5.3463707 18.0846118,5.0516812 18.8349349,5.04905873 C19.591552,5.04905873 20.2940714,5.33850332 20.8239581,5.86486841 C21.3563173,6.39355626 21.6510068,7.09787395 21.6535544,7.84819708 C21.653902,7.92663045 21.6719322,8.00397578 21.7063033,8.07447787 C21.884106,9.96961696 23.4369767,11.4687647 25.3519715,11.564447 C25.9899035,12.4349537 26.0547158,13.5719022 25.588892,14.4930599 L25.3116606,13.8576754 C25.271724,13.7663859 25.1764698,13.7122671 25.0776052,13.7246966 C24.9787405,13.7371261 24.8998468,13.8131391 24.8837501,13.9114733 L24.760045,14.671462 L24.0961132,14.2816147 C24.0101612,14.2311527 23.9012431,14.2433173 23.8285419,14.3114985 C23.7558406,14.3796797 23.7367193,14.4875941 23.7815679,14.5766039 L24.1281071,15.2642128 L23.3617496,15.3390653 C23.262587,15.3487966 23.1816643,15.422647 23.1629299,15.5205088 C23.1441956,15.6183706 23.192121,15.7168873 23.2806781,15.762555 L23.965215,16.1150885 L23.3892479,16.6260935 C23.3147063,16.6922468 23.2926245,16.7995851 23.3349998,16.8897907 C23.3773751,16.9799963 23.4740888,17.0315289 23.5725953,17.0163904 L24.333633,16.8992788 L24.1680435,17.6511754 C24.1464626,17.7485647 24.1916686,17.8485233 24.2790514,17.8966341 C24.3664342,17.9447449 24.475074,17.9294899 24.5458275,17.8591739 L25.0925728,17.317149 L25.4005245,18.0228154 C25.4403708,18.1142041 25.535653,18.1684271 25.6345741,18.1560079 C25.7334951,18.1435886 25.8124164,18.0674948 25.828435,17.9690924 L25.9521401,17.2090288 L26.6161469,17.5988761 C26.7020956,17.6492728 26.8109643,17.637077 26.8836313,17.5689116 C26.9562984,17.5007462 26.9754221,17.3928787 26.9306172,17.3038869 L26.5840779,16.6163529 L27.3504355,16.5414255 C27.4497046,16.5317933 27.5307565,16.4579014 27.5495026,16.3599437 C27.5682487,16.2619859 27.5202057,16.1633893 27.431507,16.1177859 Z M26.2137866,16.2008055 C26.1400104,16.208056 26.0745484,16.2512036 26.0387977,16.316145 C26.0030469,16.3810864 26.0016019,16.4594759 26.0349349,16.5256908 L26.1857638,16.824801 L25.8968437,16.6551653 C25.8328975,16.6176978 25.7545986,16.6141352 25.6875142,16.6456409 C25.6204298,16.6771466 25.5731708,16.7396766 25.5611689,16.8128126 L25.5072961,17.1434673 L25.3733258,16.8364147 C25.3376007,16.7544605 25.2566779,16.7014928 25.1672755,16.7015454 C25.1086073,16.7015454 25.0515126,16.724623 25.0090288,16.7666573 L24.7711342,17.0025288 L24.8431395,16.6753957 C24.859077,16.6029871 24.8382838,16.5273766 24.7875621,16.4732995 C24.7368405,16.4192224 24.6627151,16.3936349 24.5894352,16.4049077 L24.2581811,16.4558584 L24.5088883,16.2334738 C24.5642775,16.1842206 24.5918468,16.1108416 24.5825925,16.0373011 C24.5733381,15.9637606 24.5284483,15.8994999 24.4625831,15.8655053 L24.1646717,15.7121289 L24.4981736,15.6794605 C24.5719673,15.6722446 24.6374557,15.6291024 24.6732131,15.5641488 C24.7089706,15.4991952 24.7103969,15.4207864 24.6770254,15.3545753 L24.5261965,15.055465 L24.8150417,15.2251007 C24.8789991,15.2625634 24.9573039,15.2661244 25.0243976,15.2346214 C25.0914913,15.2031183 25.138766,15.140593 25.1507914,15.0674534 L25.2046642,14.7367987 L25.3386345,15.0438513 C25.36829,15.1118221 25.4295813,15.1607766 25.5024258,15.1746745 C25.5752675,15.1886851 25.6503296,15.1658328 25.7030065,15.1136087 L25.8399738,14.9777653 C25.8626019,14.9922263 25.8860541,15.0054884 25.9100309,15.0180013 L25.8688958,15.2047954 C25.8529583,15.277204 25.8737515,15.3528144 25.9244731,15.4068916 C25.9751947,15.4609687 26.0493201,15.4865561 26.1226,15.4752833 L26.4537791,15.4243327 L26.203147,15.6466423 C26.1477577,15.6958955 26.1201884,15.7692745 26.1294427,15.8428151 C26.1386971,15.9163556 26.1835869,15.9806163 26.2494521,16.0146109 L26.5474384,16.1680622 L26.2137866,16.2008055 Z" id="Shape" stroke="#999999" stroke-width="0.2" fill="#999999" fill-rule="nonzero"></path>
                <circle id="Oval-15" stroke="#999999" stroke-width="1.25" cx="12" cy="17" r="8"></circle>
                <path d="M11.7135571,8.79725829 L12.8074219,7.15554456 C13.06319,6.77167811 13.5483392,6.61256073 13.9817695,6.77038657 L16.7880929,7.79225883 C17.2508766,7.96077319 17.5220579,8.44115716 17.427226,8.92445079 L17.112924,10.5262348 C16.2417603,10.1015739 15.3562313,9.7451621 14.4563368,9.45699934 C13.5564423,9.16883658 12.6421824,8.9489229 11.7135571,8.79725829 Z" id="Path-57" stroke="#999999" fill="#DDDDDD"></path>
            </g>
        </g>
    </g>
</svg>