<?xml version="1.0" encoding="UTF-8"?>
<svg width="132px" height="384px" viewBox="0 0 132 384" version="1.1" xmlns="http://www.w3.org/2000/svg" xmlns:xlink="http://www.w3.org/1999/xlink">
    <!-- Generator: Sketch 50.2 (55047) - http://www.bohemiancoding.com/sketch -->
    <title>Fill 1</title>
    <desc>Created with Sketch.</desc>
    <defs></defs>
    <g id="Page-1" stroke="none" stroke-width="1" fill="none" fill-rule="evenodd">
        <g id="首页" transform="translate(-122.000000, -156.000000)" fill="#E9F6FF">
            <g id="man" transform="translate(122.000000, 156.000000)">
                <path d="M131.691131,203.313959 C131.108165,198.820851 131.266925,194.318853 131.636517,189.807117 C131.900693,186.582816 131.860051,183.365288 131.440925,180.111775 C130.893946,175.863369 130.468893,171.538758 130.635273,167.271724 C131.001479,157.87104 130.013783,148.699393 127.04265,139.777105 C126.183232,137.195039 125.706529,134.622287 125.817449,131.90771 C126.223451,121.948616 124.709943,112.290953 121.273115,102.924562 C120.772282,101.558806 120.2452,100.155795 120.314631,98.6245055 C120.600398,92.3249254 119.927257,86.1121339 118.161428,80.0695327 C115.854122,72.1760064 111.629423,65.6469658 103.215589,63.4620107 C95.0845585,61.3502966 88.6821023,56.1751577 81.5180233,52.3543438 C79.7915658,51.4335383 78.6950664,49.8704973 78.0176922,48.0005211 C77.5028878,46.5784587 77.2264344,45.3756961 78.7716943,44.3172989 C79.5527914,43.7821733 80.0468512,42.8114114 80.2610708,41.8241385 C80.832182,39.1912696 81.9252946,36.7459488 82.9282318,34.2680292 C84.3312431,30.8032602 85.3760928,27.3384912 83.1043491,23.8144519 C83.1009622,22.9783181 83.0979987,22.1417609 83.0946118,21.3052038 C83.5433722,18.7929922 83.5734307,16.2498755 83.3655615,13.7296201 C83.1005388,10.5167496 81.8334257,7.75898983 79.1277391,5.78613747 C73.4153578,1.62028612 67.1640406,-0.276361645 60.2488967,1.92764467 C54.7486182,3.68035042 49.683976,6.24717528 48.5895933,12.7927269 C48.3029793,14.5064836 48.4816368,16.303642 48.5011113,18.0618515 C48.524396,20.1697553 49.3804277,22.701018 48.5049215,24.297081 C46.5748284,27.81731 47.7318682,30.8341654 48.7949223,34.0123205 C49.5959173,36.4081084 50.822388,38.6552973 51.3719078,41.1425307 C51.6509013,42.4049869 52.07045,43.4921724 53.1830371,44.3494742 C54.2714928,45.1881481 54.5026467,46.4099618 53.9641342,47.7837614 C53.2313,49.6541609 52.3545238,51.3145744 50.5188397,52.4089571 C47.3169765,54.3183056 44.215026,56.3944576 41.048725,58.3639231 C37.6271385,60.4917248 34.0819313,62.4175843 30.0807666,63.1576156 C26.2895878,63.8591213 23.2994041,65.754499 20.7757618,68.5711056 C15.4401699,74.5264949 13.4660474,81.7227491 12.7480308,89.4786837 C12.3234018,94.0687406 12.757768,98.7155277 11.1976906,103.244198 C8.03519978,112.422618 6.5669912,121.910937 6.83794088,131.649885 C6.88408699,133.318342 7.3709497,134.99823 6.72617413,136.678541 C3.24870432,145.743502 2.1246865,155.155193 2.14204422,164.831907 C2.16067201,175.238068 0.26487096,185.601047 1.31945792,196.053777 C1.52986728,198.14136 1.42656772,200.298373 1.17805606,202.388919 C-0.0987943153,213.132074 6.00815748,219.973977 13.6019456,225.994987 C14.5561966,226.751529 16.2923913,228.018642 17.1369923,226.894625 C18.0954768,225.618621 16.6010199,224.122471 15.4998635,223.215636 C10.9758505,219.490501 10.2332791,214.095639 8.97886672,208.91669 C8.79555232,208.160571 9.02628291,207.462029 9.85225608,207.232568 C10.8077771,206.966699 11.0249602,207.767694 11.2971799,208.408659 C12.0676931,210.223599 12.8068777,212.058436 13.9872022,213.655346 C14.5020066,214.352618 14.9287524,215.494417 16.0582738,215.043116 C17.1678975,214.59986 17.065868,213.412761 16.9553713,212.44835 C16.7551226,210.701994 16.4092384,208.972573 16.1476026,207.232568 C15.354228,201.95667 15.3821697,196.556728 13.4330255,191.453136 C12.6913007,189.511612 13.1773167,187.42403 13.8669683,185.44525 C15.1624465,181.72943 16.4956036,178.023346 17.6467164,174.261802 C20.6136154,164.566461 23.4899156,154.836827 24.3493341,144.669864 C24.6575393,141.02432 24.3307063,137.299186 24.9043576,133.708256 C25.8289734,127.925173 28.436864,122.615406 30.3648404,117.116398 C30.409293,116.988543 30.6789727,116.940281 30.9914115,116.778134 C31.9223777,123.869395 32.8241321,130.839152 33.2314033,137.887654 C33.629784,144.783324 34.1149533,151.678993 33.8715219,158.575086 C33.5730539,167.030409 31.3326388,175.266856 30.739513,183.714983 C30.065949,193.314222 27.8111396,202.753008 28.822544,212.533021 C29.7573204,221.566653 30.3191176,230.659978 32.1243199,239.554325 C34.6775972,252.136974 37.4374738,264.649769 36.5818655,277.618098 C36.4933835,278.961416 36.2753536,280.207361 35.8397174,281.50538 C35.0387224,283.891854 34.1721067,286.27113 33.8740621,288.824408 C32.8520738,297.580739 33.5040464,306.225728 35.1788541,314.851241 C36.4675586,321.489085 38.1364393,328.022783 40.2756717,334.423122 C42.2091517,340.208321 44.4161215,345.901652 46.4719522,351.646208 C47.8313575,355.446277 48.0146719,359.382245 47.4266264,363.323716 C47.26448,364.410902 47.1243482,365.484963 47.5273859,366.405769 C48.938441,369.633457 47.1268884,371.589375 44.6189104,373.114313 C42.2917066,374.529179 39.8942253,375.871226 37.8997816,377.793699 C36.9764359,378.683599 36.2406382,379.713632 36.5844056,380.939256 C36.93283,382.180967 38.2300016,382.55564 39.3836545,382.883319 C39.8535829,383.016678 40.3556865,383.068751 40.8459361,383.090765 C45.7793371,383.315992 50.7135848,383.269423 55.6499493,383.188138 C59.2226748,383.129714 61.5075427,381.108176 61.7429302,377.606998 C61.827602,376.347082 61.7522441,375.075312 61.7204922,373.809469 C61.5820538,368.324854 60.5490582,362.942693 59.8687205,357.518196 C58.9894041,350.506103 59.2277551,343.437703 59.3733906,336.408675 C59.5042085,330.108672 59.1020175,323.813326 60.2992764,317.481994 C62.2708587,307.057205 60.860227,296.677715 58.6121913,286.371043 C57.6511667,281.965571 57.4703924,277.439018 59.5245297,273.11737 C60.7459201,270.548005 61.2031477,267.75426 61.4089001,264.922412 C62.1370773,254.891347 62.7467141,244.849275 63.6480452,234.833874 C64.4816388,225.575015 65.0866186,216.302186 65.7851608,207.035283 C65.8838034,205.725834 66.0404462,204.421042 66.1966656,202.847417 C66.8791201,203.816909 66.8173097,204.629335 66.8723464,205.375716 C67.6149178,215.405088 68.3113432,225.437847 69.0386737,235.468065 C69.6330696,243.67022 70.1326331,251.881689 70.9094966,260.066909 C71.3447095,264.651463 71.4179506,269.331272 73.3344963,273.685094 C75.2556988,278.049078 74.9741652,282.400784 73.9229651,287.058578 C72.0496021,295.360646 71.0894241,303.825283 71.7291194,312.407191 C71.949266,315.359272 72.6232533,318.221178 72.9466995,321.147858 C73.5923218,326.989364 73.2980874,332.845687 73.363708,338.692273 C73.4411827,345.591753 73.5724239,352.50859 72.6241001,359.375048 C71.8264919,365.15305 70.767248,370.90311 70.8565768,376.770864 C70.9175404,380.761868 72.9712543,383.059437 76.8763166,383.152999 C81.8105643,383.271116 86.749469,383.199145 91.6862568,383.189831 C92.6091792,383.188138 93.4749481,382.927772 94.3148921,382.510764 C96.5083144,381.421885 96.7940817,380.001939 95.1992888,378.210708 C93.964351,376.823784 92.4779379,375.783168 90.877218,374.897078 C86.9624185,372.729904 83.5217809,370.457736 85.1868514,364.936713 C85.7740501,362.989263 84.8972739,360.768322 85.0090406,358.638403 C85.2685596,353.697805 87.0788422,349.23899 88.8091099,344.690845 C94.1455486,330.666236 98.3113999,316.349509 99.2652274,301.23983 C99.6017978,295.915246 99.1716651,290.73926 98.1009905,285.533639 C97.6297921,283.244114 96.2661532,281.228503 96.1670872,278.91527 C96.0532037,276.261657 95.9867363,273.602539 96.0532037,270.929451 C96.2526057,262.899604 97.0273524,254.989143 99.1521906,247.211194 C100.884152,240.873088 101.340956,234.311449 102.234667,227.824321 C103.407371,219.31142 104.241388,210.791746 104.036905,202.187824 C103.964934,199.162501 103.192728,196.227778 102.95099,193.22955 C102.289703,185.024432 101.499716,176.807459 100.035741,168.729772 C98.7135908,161.436992 98.6162183,154.16284 98.9024089,146.878527 C99.2004535,139.294899 99.9599594,131.721856 100.894736,124.174637 C101.39938,120.098961 101.646198,118.41611 102.524667,117.281931 C102.657602,117.444078 102.849384,117.579129 102.899763,117.7544 C105.180398,125.725401 108.999941,133.266269 108.325531,142.010323 C107.841208,148.287889 109.767914,154.422359 111.248824,160.499675 C113.346144,169.104445 115.88799,177.58517 118.991211,185.891047 C119.604658,187.531563 120.251974,189.216531 119.489928,191.011996 C116.534036,197.974133 117.561528,205.621688 115.766063,212.788307 C115.54888,213.655346 115.704253,214.7764 116.777891,215.093496 C117.801996,215.396198 118.20842,214.367012 118.688086,213.72139 C119.914557,212.069867 120.627916,210.140197 121.487335,208.292236 C121.757438,207.711811 121.946256,207.024276 122.789163,207.20378 C123.672713,207.392175 123.767546,208.091987 123.709122,208.848106 C123.67102,209.338779 123.740874,209.861204 123.596509,210.317161 C122.053789,215.194255 121.07075,220.360504 116.683482,223.790134 C116.257159,224.123741 116.006531,224.682998 115.679274,225.141072 C115.291901,225.683395 115.014178,226.25874 115.495113,226.874727 C116.077655,227.621108 116.755453,227.272684 117.3816,226.946698 C119.775695,225.700329 122.010183,224.203756 123.767122,222.141575 C128.391471,216.71369 132.707615,211.146521 131.691131,203.313959" id="Fill-1"></path>
            </g>
        </g>
    </g>
</svg>