<?xml version="1.0" encoding="UTF-8"?>
<svg width="132px" height="384px" viewBox="0 0 132 384" version="1.1" xmlns="http://www.w3.org/2000/svg" xmlns:xlink="http://www.w3.org/1999/xlink">
    <!-- Generator: Sketch 50.2 (55047) - http://www.bohemiancoding.com/sketch -->
    <title>Fill 1</title>
    <desc>Created with Sketch.</desc>
    <defs></defs>
    <g id="Page-1" stroke="none" stroke-width="1" fill="none" fill-rule="evenodd" opacity="0.639999986">
        <g id="首页-第2页" transform="translate(-122.000000, -157.000000)" fill="#FED9DE">
            <g id="human" transform="translate(122.000000, 157.000000)">
                <path d="M116.28577,144.863096 C112.044399,127.137601 112.764734,109.105372 111.990312,91.1479926 C111.737089,85.2677053 110.202997,79.5659792 107.849739,74.1308717 C106.247301,70.4304979 103.54248,68.0979514 99.444192,67.4517068 C96.453204,66.9796205 93.4818839,66.3866997 90.5026966,65.8451458 C89.4657094,65.6563113 88.3923366,65.5609156 87.4359875,64.7204552 C89.3619615,63.2078223 91.2186063,61.7309015 92.3839263,59.6268154 C92.701562,59.0534629 93.4681164,58.2790457 92.1661049,57.9424702 C87.8514707,56.8265854 87.0411554,53.2509598 86.4698044,49.6851184 C85.5488575,43.9354498 87.3563327,38.3599394 87.8863812,32.7002852 C88.5703306,25.401293 88.5732808,18.1756821 84.6952729,11.575769 C81.2017714,5.63090617 75.8649008,2.56846038 69.0096724,2.12719423 C68.0041537,2.0626187 66.9996184,2.01516547 66,2 C65.0003816,2.01516547 63.9958463,2.0626187 62.9903276,2.12719423 C56.1346075,2.56846038 50.7982286,5.63090617 47.3047271,11.575769 C43.4267192,18.1756821 43.4296694,25.401293 44.1131271,32.7002852 C44.6431756,38.3599394 46.4511425,43.9354498 45.5297039,49.6851184 C44.9583529,53.2509598 44.1485293,56.8265854 39.8338951,57.9424702 C38.5318836,58.2790457 39.298438,59.0534629 39.615582,59.6268154 C40.780902,61.7309015 42.6375468,63.2078223 44.5635208,64.7204552 C43.6076634,65.5609156 42.5342906,65.6563113 41.4973034,65.8451458 C38.5176244,66.3866997 35.5463043,66.9796205 32.555808,67.4517068 C28.4575202,68.0979514 25.7526994,70.4304979 24.1502615,74.1308717 C21.7965118,79.5659792 20.2629113,85.2677053 20.0091961,91.1479926 C19.2347746,109.105372 19.9556012,127.137601 15.7142298,144.863096 C13.5812517,153.776477 13.9534657,163.011756 14.1717788,172.142835 C14.2858523,176.916043 14.1447355,181.681424 14.6433155,186.470287 C15.2333509,192.137768 14.4908897,197.886948 16.6469775,203.451206 C18.5483667,208.357479 21.2630214,212.525047 25.3362327,215.830141 C26.1381892,216.480788 27.051269,217.496874 28.1133328,216.582054 C29.1581873,215.6824 28.6645243,214.379148 28.0754722,213.427148 C26.8919595,211.513853 25.8038358,209.547235 25.0908763,207.437767 C24.0558558,204.373854 22.6201029,201.322171 23.5336744,197.834603 C24.7294796,198.320876 25.0648164,199.297336 25.4665322,200.149048 C26.26308,201.837796 26.928345,203.587696 27.67769,205.299436 C27.9137042,205.838055 28.2859182,206.315523 28.987077,206.086573 C29.470906,205.929048 29.448288,205.50099 29.3779755,205.077825 C28.4363772,199.403494 27.7986473,193.630833 24.1846802,188.80528 C23.4176341,187.780877 23.160477,186.710488 23.1747362,185.403812 C23.2484906,178.499122 24.8779718,171.829252 26.3299507,165.16085 C28.2731341,156.237685 29.9709611,147.297398 30.919443,138.207413 C32.1614676,126.299098 33.8833877,114.448509 35.6294009,102.60379 C35.7164311,102.012826 35.6407099,101.246236 36.6924481,101.159646 C37.3473874,103.602754 38.6292394,105.759675 39.9882877,107.884308 C40.6933801,108.986006 41.2086777,110.154725 41.3040667,111.514236 C41.5100875,114.440192 41.836082,117.357343 42.07898,120.280854 C43.0259868,131.675989 42.4723369,142.67242 37.4427765,153.448707 C31.817772,165.500361 31.1466067,178.590604 32.3689634,191.734171 C32.7215096,195.522603 33.1369929,199.304185 33.6478652,203.081854 C34.1921729,207.106573 35.0580499,211.04617 35.8113285,215.014141 C37.8007313,225.491032 41.0685443,235.707664 42.4448019,246.306368 C43.4729387,254.223231 44.2488353,262.139604 43.2502003,270.175834 C42.2151798,278.508524 41.7033241,286.924379 42.3882569,295.313817 C43.6027465,310.186248 46.5067042,324.839513 48.4975821,339.613123 C49.6865035,348.436 50.4860016,357.268661 49.1987409,366.161495 C48.6972108,369.627538 48.2817275,373.1063 47.87952,376.585063 C47.657765,378.502271 48.4026848,379.98653 50.282931,380.650875 C53.7257878,381.866559 57.2999275,382.308314 60.9202866,381.845033 C63.0340885,381.574501 64.1694151,379.913149 63.9152081,377.80417 C63.7790083,376.675566 63.5901969,375.532775 63.2465013,374.452602 C60.2471545,365.02115 59.4181547,355.281007 59.6531855,345.501727 C59.929027,334.012174 61.8368083,322.640031 62.9662345,311.210161 C64.1227039,299.502911 64.7766599,287.810336 62.7272701,276.117762 C61.7964892,270.808381 61.1784271,265.439316 62.0605301,260.063892 C62.8944468,254.981504 63.4235119,249.904497 63.2401092,244.742368 C62.6343395,227.697852 63.8498125,210.707637 64.8995839,193.714488 C64.9507203,192.888704 64.6832376,191.659322 66,191.650027 C67.3167624,191.659322 67.0492797,192.888704 67.0999244,193.714488 C68.1501875,210.707637 69.3656605,227.697852 68.7598908,244.742368 C68.5764881,249.904497 69.1055532,254.981504 69.9394699,260.063892 C70.8215729,265.439316 70.2035108,270.808381 69.2727299,276.117762 C67.2228484,287.810336 67.8772961,299.502911 69.0337655,311.210161 C70.1631917,322.640031 72.0704813,334.012174 72.3468145,345.501727 C72.5813536,355.281007 71.7528455,365.02115 68.7534987,374.452602 C68.4098031,375.532775 68.2209917,376.675566 68.0847919,377.80417 C67.8305849,379.913149 68.9654198,381.574501 71.0797134,381.845033 C74.6995808,382.308314 78.2742122,381.866559 81.717069,380.650875 C83.5968235,379.98653 84.3417433,378.502271 84.12048,376.585063 C83.7182725,373.1063 83.3022975,369.627538 82.8007674,366.161495 C81.5135068,357.268661 82.3134965,348.436 83.5024179,339.613123 C85.4932958,324.839513 88.3972535,310.186248 89.6117431,295.313817 C90.2966759,286.924379 89.7848202,278.508524 88.749308,270.175834 C87.750673,262.139604 88.5265696,254.223231 89.5547064,246.306368 C90.9314557,235.707664 94.1992687,225.491032 96.1881798,215.014141 C96.9414584,211.04617 97.8073354,207.106573 98.3521348,203.081854 C98.8630071,199.304185 99.2784904,195.522603 99.6310366,191.734171 C100.852902,178.590604 100.182228,165.500361 94.5572235,153.448707 C89.5276631,142.67242 88.9740132,131.675989 89.9205284,120.280854 C90.1634263,117.357343 90.4899125,114.440192 90.6954416,111.514236 C90.7913223,110.154725 91.3066199,108.986006 92.0117123,107.884308 C93.3702689,105.759675 94.6526126,103.602754 95.3070602,101.159646 C96.3587984,101.246236 96.2835689,102.012826 96.3705991,102.60379 C98.1161206,114.448509 99.8385324,126.299098 101.080557,138.207413 C102.028547,147.297398 103.726866,156.237685 105.669558,165.16085 C107.122028,171.829252 108.751509,178.499122 108.825264,185.403812 C108.839523,186.710488 108.582366,187.780877 107.81532,188.80528 C104.201353,193.630833 103.563623,199.403494 102.622025,205.077825 C102.551712,205.50099 102.529094,205.929048 103.012923,206.086573 C103.71359,206.315523 104.086296,205.838055 104.32231,205.299436 C105.071655,203.587696 105.736428,201.837796 106.532976,200.149048 C106.934692,199.297336 107.270029,198.320876 108.466326,197.834603 C109.379897,201.322171 107.943652,204.373854 106.908632,207.437767 C106.196164,209.547235 105.108041,211.513853 103.924036,213.427148 C103.334984,214.379148 102.841813,215.6824 103.886175,216.582054 C104.948731,217.496874 105.861811,216.480788 106.663767,215.830141 C110.736979,212.525047 113.451633,208.357479 115.353023,203.451206 C117.50911,197.886948 116.766649,192.137768 117.356685,186.470287 C117.855264,181.681424 117.714148,176.916043 117.828221,172.142835 C118.046534,163.011756 118.418748,153.776477 116.28577,144.863096" id="Fill-1"></path>
            </g>
        </g>
    </g>
</svg>