<?xml version="1.0" encoding="UTF-8"?>
<svg width="45px" height="45px" viewBox="0 0 45 45" version="1.1" xmlns="http://www.w3.org/2000/svg" xmlns:xlink="http://www.w3.org/1999/xlink">
    <!-- Generator: Sketch 50.2 (55047) - http://www.bohemiancoding.com/sketch -->
    <title>Rectangle Copy 6</title>
    <desc>Created with Sketch.</desc>
    <defs></defs>
    <g id="Page-1" stroke="none" stroke-width="1" fill="none" fill-rule="evenodd">
        <g id="Button/Color" transform="translate(-808.000000, -754.000000)">
            <g id="Group-4" transform="translate(628.000000, 753.000000)">
                <g id="Group-Copy-3" transform="translate(180.000000, 0.000000)">
                    <rect id="Rectangle" x="0" y="0" width="45" height="45"></rect>
                    <path d="M7.66428125,30.4552947 L17.1412812,23.8049844 C17.7830703,23.3546538 17.7842891,22.6221937 17.1412812,22.1709793 L7.66428125,15.520669 C7.02251562,15.0703384 6.5,15.2795754 6.5,15.9900011 L6.5,29.9859827 C6.5,30.7019722 7.02125,30.9065292 7.66428125,30.4552947 Z" id="Path" fill="#1E74C9"></path>
                    <path d="M8.61457812,31.4499187 C6.99457812,32.5867323 5,31.7893137 5,29.9859827 L5,15.989981 C5,14.1926557 6.99546875,13.3898942 8.61457812,14.526045 L18.0915781,21.1763553 C19.4673594,22.1417741 19.4664687,23.8348123 18.0915781,24.7996084 L8.61457813,31.4499187 Z" id="Path" fill="#76BBFF"></path>
                    <path d="M16.6145781,31.4499187 C14.9945781,32.5867323 13,31.7893137 13,29.9859827 L13,15.989981 C13,14.1926557 14.9954687,13.3898942 16.6145781,14.526045 L26.0915781,21.1763553 C27.4673594,22.1417741 27.4664687,23.8348123 26.0915781,24.7996084 L16.6145781,31.4499187 Z" id="Path" fill="#76BBFF"></path>
                    <path d="M15.6642813,30.4552947 L25.1412812,23.8049844 C25.7830703,23.3546538 25.7842891,22.6221937 25.1412812,22.1709793 L15.6642813,15.520669 C15.0225156,15.0703384 14.5,15.2795754 14.5,15.9900011 L14.5,29.9859827 C14.5,30.7019722 15.02125,30.9065292 15.6642813,30.4552947 Z" id="Shape-Copy" fill="#FFFFFF" fill-rule="nonzero"></path>
                    <text id="30" font-family="PingFangSC-Medium, PingFang SC" font-size="12" font-weight="400" fill="#76BBFF">
                        <tspan x="28" y="27">30</tspan>
                    </text>
                </g>
            </g>
        </g>
    </g>
</svg>