<?xml version="1.0" encoding="UTF-8"?>
<svg width="20px" height="20px" viewBox="0 0 20 20" version="1.1" xmlns="http://www.w3.org/2000/svg" xmlns:xlink="http://www.w3.org/1999/xlink">
    <!-- Generator: Sketch 50.2 (55047) - http://www.bohemiancoding.com/sketch -->
    <title>链接</title>
    <desc>Created with Sketch.</desc>
    <defs></defs>
    <g id="Page-1" stroke="none" stroke-width="1" fill="none" fill-rule="evenodd" opacity="0.639999986">
        <g id="睡眠-报告-无数据-弹窗提示如何操作" transform="translate(-178.000000, -301.000000)" fill-rule="nonzero">
            <g id="链接" transform="translate(176.000000, 299.000000)">
                <rect id="Rectangle-path" fill="#000000" opacity="0" x="0" y="0" width="24" height="24"></rect>
                <path d="M14.2484635,9.79351999 C14.1036257,9.64873015 13.9492424,9.51821065 13.7901583,9.3971887 L13.7898705,9.39745252 C13.6261335,9.2399753 13.4038042,9.14298504 13.1586904,9.14298504 C12.6556075,9.14298504 12.247812,9.55080455 12.247812,10.0538635 C12.247812,10.2764565 12.3277738,10.4803423 12.4604278,10.638563 L12.4604038,10.638563 C12.4604278,10.638587 12.4604758,10.638635 12.4605238,10.638659 C12.5242486,10.7146634 12.6000611,10.780187 12.6851794,10.8320638 C12.7710652,10.9028878 12.8553681,10.9726325 12.9342026,11.0514671 L13.0092957,11.1265841 C13.9533436,12.0694569 13.6715107,13.6939235 12.7274628,14.6379954 L8.69901007,18.665249 C7.75498613,19.6081217 6.22021868,19.6081217 5.27614678,18.665249 L5.20045411,18.5895083 C4.25635821,17.6454844 4.25635821,16.1095897 5.20045411,15.1678442 L6.98019145,13.3887065 C7.20854063,13.2074614 7.35512925,12.927715 7.35512925,12.613576 C7.35512925,12.0671785 6.91219755,11.6242468 6.36580001,11.6242468 C6.15961181,11.6242468 5.96822156,11.687372 5.80973702,11.7952748 C5.80923338,11.7942195 5.80870573,11.7932122 5.80817808,11.792133 L5.78920695,11.8098809 C5.71915045,11.8602468 5.65580939,11.9193187 5.60110247,11.9858976 L3.75157245,13.7165642 C2.01301519,15.4563206 2.01301519,18.3017035 3.75157245,20.0390375 L3.82666554,20.1141066 C5.5652228,21.8514647 8.40938245,21.8514647 10.1479397,20.1141066 L14.1751932,16.0856539 C15.9113521,14.3471926 16.0585643,11.604772 14.3224294,9.86741388 L14.2484635,9.79351999 Z M20.0535837,3.88603727 L19.9784906,3.81094418 C18.2399573,2.07238692 15.3957976,2.07238692 13.6572404,3.81094418 L9.62998688,7.83937291 C7.89142962,9.57793017 7.79568654,12.0885 9.5342438,13.8281845 L9.60813769,13.9009512 C9.68709216,13.9798817 9.76904459,14.0543032 9.85269987,14.1256788 C9.9132588,14.1933129 9.98439457,14.2512097 10.063469,14.2969946 C10.0640686,14.2974743 10.0646921,14.297978 10.0652917,14.2984577 L10.0655555,14.2982178 C10.1915901,14.3706967 10.3376271,14.4123804 10.4934734,14.4123804 C10.9683994,14.4123804 11.3533864,14.0273455 11.3533864,13.5524675 C11.3533864,13.4184224 11.3226872,13.2915484 11.2679563,13.1784411 C11.1542734,12.9231821 10.9414657,12.7677915 10.7942775,12.6205793 L10.7203596,12.5478606 C9.77633562,11.6038367 10.1348205,10.2323265 11.0788445,9.28830258 L15.1084724,5.26102507 C16.05017,4.31695315 17.585465,4.31695315 18.5295369,5.26102507 L18.604678,5.33491896 C19.5487259,6.27901486 19.5487259,7.81550911 18.604678,8.75838185 L16.8307687,10.5334903 C16.5894443,10.7122891 16.4329504,10.9990867 16.4329504,11.3224594 C16.4329504,11.86442 16.8723085,12.3038021 17.4142931,12.3038021 C17.6029252,12.3038021 17.7790618,12.2504622 17.9286244,12.1582208 C17.9297516,12.1601395 17.9308069,12.1619143 17.9319341,12.163857 L17.9594434,12.1384582 C18.044202,12.0817127 18.1194869,12.0120399 18.18278,11.9323899 L20.0523125,10.2073115 C21.7921409,8.46877816 21.7921409,5.62457053 20.0535837,3.88603727 Z" id="Shape" fill="#2283E2"></path>
            </g>
        </g>
    </g>
</svg>