<?xml version="1.0" encoding="UTF-8"?>
<svg width="22px" height="27px" viewBox="0 0 22 27" version="1.1" xmlns="http://www.w3.org/2000/svg" xmlns:xlink="http://www.w3.org/1999/xlink">
    <!-- Generator: Sketch 50.2 (55047) - http://www.bohemiancoding.com/sketch -->
    <title>Group 8 Copy</title>
    <desc>Created with Sketch.</desc>
    <defs></defs>
    <g id="Page-1" stroke="none" stroke-width="1" fill="none" fill-rule="evenodd">
        <g id="首页" transform="translate(-301.000000, -314.000000)" fill="#26A5FD">
            <g id="Group-12" transform="translate(288.000000, 308.000000)">
                <g id="Group-8" transform="translate(13.000000, 6.000000)">
                    <path d="M11.126375,9.29678158 C14.5117157,7.97663128 16.4815196,7.22675984 17.0357867,7.04716726 C17.8671872,6.77777838 18.9918911,7.04716726 18.6610826,8.17197442 C18.3302741,9.29678158 17.0357867,13.8779131 17.0357867,14.7590754 C17.0357867,15.6402378 20.9623687,21.2315776 21.2487101,21.8159776 C21.5350514,22.4003777 20.0139613,24.3185871 18.6610826,24.9205843 C17.308204,25.5225815 15.1816422,26.6886575 14.3778652,25.9228544 C13.5740882,25.1570514 9.49097284,20.5211731 8.87202636,20.0975373 C8.25307988,19.6739016 2.72949911,19.2374482 1.93111206,19.2374482 C1.132725,19.2374482 -0.390610976,18.386918 0.77025054,17.1611986 C1.54415822,16.3440524 3.08209199,14.7051253 5.38405186,12.2444172 L6.44564837,14.3460849 C5.09905799,15.489513 4.42576281,16.1559607 4.42576281,16.3454283 C4.42576281,16.6296296 10.300589,15.5937464 11.126375,15.0864698 C11.952161,14.5791932 14.9476283,10.384765 15.2029774,10.0339077 C15.3732102,9.80000289 14.3805602,9.91695532 12.2250274,10.384765 L11.126375,9.29678158 Z M6.9585924,9.15013845 C8.45048698,8.16665182 10.6174734,9.22096165 11.3219854,10.6613231 C12.0264974,12.1016846 11.9126346,13.4490634 11.0149826,14.2272497 C10.1173305,15.0054359 8.06465605,14.7640722 6.9585924,13.4490634 C5.85252876,12.1340547 5.46669783,10.1336251 6.9585924,9.15013845 Z" id="Combined-Shape"></path>
                    <path d="M11.0614493,4.62962963 C10.7750795,4.62962963 10.5429308,4.39748098 10.5429308,4.11111111 C10.5429308,3.82474124 10.7750795,3.59259259 11.0614493,3.59259259 L12.6190476,3.59259259 C13.0182772,3.59259259 13.2677403,4.02483532 13.0680147,4.37051431 L11.9598823,6.28843584 L12.6190476,6.28843584 C12.9054175,6.28843584 13.1375661,6.52058449 13.1375661,6.80695436 C13.1375661,7.09332423 12.9054175,7.32547288 12.6190476,7.32547288 L11.0614493,7.32547288 C10.6622197,7.32547288 10.4127566,6.89323015 10.6124822,6.54755116 L11.7206147,4.62962963 L11.0614493,4.62962963 Z" id="Path-2" fill-rule="nonzero"></path>
                    <path d="M16.7427568,1.51851852 L14.7142857,1.51851852 C14.4279158,1.51851852 14.1957672,1.28636987 14.1957672,1 C14.1957672,0.71363013 14.4279158,0.481481481 14.7142857,0.481481481 L17.8571429,0.481481481 C18.2979909,0.481481481 18.5377291,0.996720465 18.253796,1.3339577 L15.8286717,4.21436177 L17.8571429,4.21436177 C18.1435127,4.21436177 18.3756614,4.44651041 18.3756614,4.73288028 C18.3756614,5.01925015 18.1435127,5.2513988 17.8571429,5.2513988 L14.7142857,5.2513988 C14.2734377,5.2513988 14.0336994,4.73615982 14.3176326,4.39892258 L16.7427568,1.51851852 Z" id="Path-2-Copy" fill-rule="nonzero"></path>
                </g>
            </g>
        </g>
    </g>
</svg>