<?xml version="1.0" encoding="UTF-8"?>
<svg width="16px" height="16px" viewBox="0 0 16 16" version="1.1" xmlns="http://www.w3.org/2000/svg" xmlns:xlink="http://www.w3.org/1999/xlink">
    <!-- Generator: Sketch 50.2 (55047) - http://www.bohemiancoding.com/sketch -->
    <title>问号</title>
    <desc>Created with Sketch.</desc>
    <defs></defs>
    <g id="Page-1" stroke="none" stroke-width="1" fill="none" fill-rule="evenodd">
        <g id="睡眠-AppleHealth数据同步-存在偏差" transform="translate(-312.000000, -281.000000)" fill-rule="nonzero">
            <g id="问号" transform="translate(312.000000, 281.000000)">
                <rect id="Rectangle-path" fill="#000000" opacity="0" x="0" y="0" width="16" height="16"></rect>
                <path d="M8,0 C12.418278,2.705415e-16 16,3.581722 16,8 C16,12.418278 12.418278,16 8,16 C3.581722,16 5.41083001e-16,12.418278 0,8 C-5.41083001e-16,3.581722 3.581722,8.11624501e-16 8,0 Z M8,13.467 C8.58928783,13.467 9.067,12.9892878 9.067,12.4 C9.067,11.8107122 8.58928783,11.333 8,11.333 C7.41071217,11.333 6.933,11.8107122 6.933,12.4 C6.933,12.9892878 7.41071217,13.467 8,13.467 Z M10.915,7.535 C11.383,6.849 11.557,6.249 11.555,5.407 C11.553,4.081 10.301,2.673 8.415,2.673 C6.405,2.673 4.451,3.669 4.451,6.223 L6.221,6.229 C6.221,5.357 6.784,4.433 7.987,4.433 C8.707,4.433 9.747,4.724 9.747,5.788 C9.747,6.767 9.427,6.967 8.467,7.668 C7.54,8.298 7.067,9.121 7.101,10.138 L7.101,10.664 L8.907,10.664 C8.907,9.056 10.044,8.861 10.915,7.534 L10.915,7.535 Z" id="Shape" fill="#2282E3"></path>
            </g>
        </g>
    </g>
</svg>