<?xml version="1.0" encoding="UTF-8"?>
<svg width="131px" height="382px" viewBox="0 0 131 382" version="1.1" xmlns="http://www.w3.org/2000/svg" xmlns:xlink="http://www.w3.org/1999/xlink">
    <!-- Generator: Sketch 49.1 (51147) - http://www.bohemiancoding.com/sketch -->
    <title>Group</title>
    <desc>Created with Sketch.</desc>
    <defs></defs>
    <g id="Page-1" stroke="none" stroke-width="1" fill="none" fill-rule="evenodd">
        <g id="Artboard" transform="translate(-3.000000, -9.000000)" fill="#E9F6FF">
            <g id="Group" transform="translate(3.000000, 9.000000)">
                <path d="M130.849827,202.17889 C130.266154,197.688782 130.425106,193.189789 130.795147,188.681066 C131.059644,185.458917 131.018952,182.243538 130.599318,178.992197 C130.051674,174.746627 129.626106,170.424903 129.792688,166.160718 C130.159338,156.76631 129.170442,147.600787 126.195702,138.684455 C125.33524,136.104113 124.857959,133.533079 124.969014,130.820314 C125.375508,120.867869 123.860162,111.216653 120.419161,101.856515 C119.91772,100.491671 119.389998,99.0895963 119.459513,97.5593296 C119.745627,91.2639552 119.071669,85.0553115 117.303695,79.0167444 C114.993587,71.128488 110.763759,64.6038063 102.339708,62.4203099 C94.1988041,60.3100056 87.7885734,55.1383217 80.6157952,51.3200587 C78.8872413,50.3998679 77.7894104,48.8378704 77.1112136,46.9691427 C76.5957841,45.5480296 76.3189951,44.34607 77.8661314,43.2883795 C78.648177,42.7536111 79.1428367,41.7834973 79.3573164,40.7968835 C79.929121,38.1657724 81.023561,35.7220841 82.027716,33.2458189 C83.432431,29.783363 84.4785495,26.3209071 82.2040472,22.7992205 C82.2006562,21.9636449 82.1976891,21.1276463 82.1942981,20.2916477 C82.6436034,17.7811133 82.6736984,15.2396944 82.4655768,12.7211215 C82.2002323,9.51039599 80.9315806,6.7544774 78.2226085,4.78294215 C72.5032907,0.619872007 66.2443827,-1.27550952 59.3208418,0.927025353 C53.8138844,2.67856096 48.7430922,5.24367217 47.6473806,11.7848538 C47.3604187,13.4974664 47.539293,15.293425 47.5587912,17.0504606 C47.5821042,19.1569572 48.4391753,21.68653 47.5626061,23.2815274 C45.6301693,26.7994063 46.788614,29.8142476 47.852959,32.9902808 C48.6549267,35.3844693 49.8828866,37.6301579 50.4330737,40.1157308 C50.712406,41.3773441 51.1324641,42.4638039 52.2464022,43.3205333 C53.3361796,44.1586473 53.5676142,45.3796453 53.0284478,46.7525277 C52.2947237,48.6216785 51.4168828,50.2809835 49.5789697,51.3746355 C46.3732185,53.2827093 43.2675014,55.3574752 40.0973556,57.3256258 C36.6716143,59.452007 33.1221022,61.3765808 29.1160789,62.116118 C25.3202966,62.8171554 22.3264819,64.7112677 19.7997752,67.5259938 C14.4577044,73.4774072 12.4811848,80.6688571 11.7622963,88.4196137 C11.3371517,93.0066062 11.7720453,97.650291 10.2100735,102.175937 C7.04374252,111.34823 5.57375111,120.830215 5.84502981,130.56266 C5.89123196,132.230004 6.37868586,133.90877 5.73312734,135.58796 C2.25143489,144.646868 1.1260522,154.052276 1.14343099,163.72253 C1.1620814,174.121743 -0.736021697,184.477803 0.319845834,194.923556 C0.530510693,197.009745 0.427085692,199.165318 0.178272267,201.254468 C-1.10012857,211.990451 5.01423881,218.827786 12.617248,224.844776 C13.5726577,225.600813 15.3109606,226.867081 16.1565872,225.743813 C17.1162356,224.468661 15.619964,222.97351 14.5174705,222.067281 C9.98796407,218.344633 9.24449091,212.953372 7.98855534,207.777881 C7.80501835,207.022267 8.03602911,206.324191 8.86300525,206.094884 C9.81968651,205.829192 10.0371333,206.629652 10.3096836,207.270189 C11.0811324,209.083917 11.8212146,210.91753 13.0029724,212.513373 C13.5184019,213.21018 13.9456659,214.351216 15.0765589,213.900217 C16.1875299,213.457256 16.0853765,212.27095 15.9747457,211.307183 C15.7742538,209.561993 15.4279496,207.833727 15.1659961,206.094884 C14.3716582,200.822508 14.3996338,195.42617 12.4481227,190.325986 C11.7054973,188.385759 12.1921034,186.29957 12.8825925,184.322111 C14.1796437,180.608771 15.5144197,176.905162 16.6669302,173.14613 C19.6374319,163.457261 22.5172248,153.734123 23.3776869,143.573947 C23.6862664,139.930838 23.3590364,136.20819 23.9333843,132.619657 C24.8591228,126.840436 27.4701802,121.534214 29.4004977,116.038876 C29.4450043,115.911107 29.7150114,115.862877 30.0278296,115.700838 C30.9599263,122.787365 31.8627757,129.752469 32.2705415,136.796266 C32.6694059,143.687331 33.1551643,150.578397 32.9114374,157.469886 C32.6126069,165.919564 30.3694712,174.150513 29.7756252,182.592999 C29.1012434,192.185829 26.843696,201.618314 27.8563285,211.391798 C28.79224,220.419399 29.3547194,229.506653 31.1621137,238.395062 C33.7184915,250.969311 36.4817193,263.473752 35.625072,276.433423 C35.5364826,277.775844 35.318188,279.020957 34.8820227,280.318109 C34.0800551,282.70299 33.2123872,285.080678 32.9139806,287.632251 C31.8907513,296.382737 32.5435156,305.021953 34.220357,313.641709 C35.5106263,320.275121 37.1815335,326.804456 39.3233636,333.200523 C41.2591913,338.98186 43.4688411,344.671389 45.5271681,350.41211 C46.8882242,354.209642 47.0717612,358.142982 46.4830016,362.081822 C46.3206583,363.168282 46.1803563,364.241626 46.5838834,365.161817 C47.996652,368.38735 46.1828996,370.341962 43.6718762,371.865883 C41.3418466,373.279804 38.941454,374.620955 36.9445885,376.542145 C36.0201216,377.431451 35.2834304,378.460795 35.6276153,379.685601 C35.9764627,380.926484 37.2752094,381.300906 38.4302632,381.628367 C38.9007622,381.761636 39.4034755,381.813674 39.8943204,381.835674 C44.833712,382.060751 49.7739513,382.014213 54.7163099,381.932982 C58.2933738,381.874597 60.5810161,379.854408 60.8166895,376.355568 C60.9014641,375.096493 60.8260147,373.825572 60.7942242,372.560574 C60.6556178,367.079622 59.6213678,361.701053 58.9402039,356.280178 C58.0598198,349.272766 58.2984603,342.209085 58.4442726,335.18475 C58.5752493,328.888953 58.17257,322.597809 59.3712827,316.270704 C61.3452591,305.852875 59.9329144,295.480315 57.682149,285.180524 C56.7199574,280.777993 56.5389636,276.254462 58.5955952,271.9357 C59.8184687,269.36805 60.2762515,266.57617 60.4822537,263.746213 C61.2113152,253.721845 61.8216923,243.686476 62.7241178,233.677762 C63.5587236,224.425085 64.1644381,215.158446 64.8638285,205.89773 C64.9625909,204.589155 65.1194239,203.285234 65.275833,201.71266 C65.9591162,202.681505 65.8972307,203.493388 65.9523342,204.239271 C66.6958074,214.261947 67.3930784,224.288008 68.1212921,234.31153 C68.7164098,242.508209 69.2165798,250.714196 69.9943867,258.893952 C70.4301281,263.475444 70.5034581,268.152129 72.422331,272.503045 C74.3458665,276.864115 74.063991,281.212915 73.0115144,285.8676 C71.1358766,294.164125 70.1745327,302.623111 70.8150048,311.199289 C71.0354187,314.1494 71.7102244,317.009395 72.0340634,319.934121 C72.6804696,325.771727 72.3858779,331.624141 72.4515782,337.466824 C72.529147,344.361697 72.6605476,351.273916 71.7110722,358.13579 C70.9124955,363.909934 69.8519654,369.656156 69.9414026,375.519992 C70.0024403,379.508332 72.058648,381.804367 75.9684521,381.897867 C80.9086914,382.015905 85.8535933,381.943982 90.7963759,381.934674 C91.7204189,381.932982 92.5872391,381.67279 93.428203,381.25606 C95.6242888,380.167908 95.9104031,378.74891 94.3136736,376.958875 C93.0772362,375.572877 91.5890183,374.532956 89.9863546,373.647457 C86.0668014,371.48173 82.6219859,369.21108 84.2890783,363.693742 C84.87699,361.747592 83.9991492,359.528134 84.1110516,357.399637 C84.3708857,352.462338 86.1833665,348.006499 87.9157353,343.461391 C93.2586539,329.446144 97.4295637,315.138975 98.3845495,300.039385 C98.7215285,294.718355 98.2908736,289.545825 97.2188989,284.343679 C96.7471283,282.055683 95.3818335,280.041417 95.2826472,277.729729 C95.1686254,275.077887 95.1020773,272.420545 95.1686254,269.749242 C95.3682696,261.724755 96.1439571,253.819575 98.2713754,246.046819 C100.00544,239.712944 100.462799,233.155686 101.357594,226.672889 C102.531723,218.165672 103.366752,209.651686 103.162022,201.053507 C103.089963,198.030204 102.316819,195.09744 102.074787,192.101214 C101.412698,183.901574 100.621751,175.690087 99.1559983,167.617792 C97.832243,160.329881 97.7347523,153.060585 98.0212904,145.781136 C98.3196969,138.202571 99.080125,130.634583 100.016037,123.092403 C100.521293,119.019448 100.768411,117.33772 101.647947,116.204299 C101.781043,116.366337 101.973058,116.501299 102.023499,116.676452 C104.306902,124.642132 108.131084,132.177966 107.455855,140.916182 C106.970944,147.189556 108.89999,153.319931 110.382697,159.39319 C112.482564,167.992215 115.027497,176.467278 118.134486,184.767611 C118.748678,186.407031 119.39678,188.090874 118.633808,189.885141 C115.674327,196.842629 116.703067,204.485079 114.905422,211.646913 C114.687975,212.513373 114.843536,213.633679 115.918478,213.950563 C116.943827,214.253063 117.350745,213.224564 117.830993,212.579373 C119.058953,210.928953 119.773179,209.000571 120.633641,207.153843 C120.904072,206.573806 121.093119,205.88673 121.93705,206.066114 C122.821673,206.254383 122.916621,206.953728 122.858126,207.709343 C122.819978,208.199688 122.889917,208.721764 122.745376,209.177417 C121.200783,214.051255 120.21655,219.214055 115.823955,222.641395 C115.397114,222.974779 115.146182,223.533663 114.818528,223.991431 C114.430684,224.533392 114.152623,225.108353 114.634143,225.723929 C115.217392,226.469812 115.896013,226.12162 116.522921,225.795852 C118.919923,224.550315 121.157124,223.054741 122.916197,220.993936 C127.546161,215.569676 131.867546,210.006223 130.849827,202.17889" id="Fill-1"></path>
            </g>
        </g>
    </g>
</svg>