<svg xmlns="http://www.w3.org/2000/svg" width="131" height="382" viewBox="0 0 131 382">
  <path fill="#FED9DE" fill-rule="evenodd" d="M102.28577,142.863096 C98.0443988,125.137601 98.7647337,107.105372 97.9903122,89.1479926 C97.7370887,83.2677053 96.2029965,77.5659792 93.8497385,72.1308717 C92.2473006,68.4304979 89.5424798,66.0979514 85.444192,65.4517068 C82.453204,64.9796205 79.4818839,64.3866997 76.5026966,63.8451458 C75.4657094,63.6563113 74.3923366,63.5609156 73.4359875,62.7204552 C75.3619615,61.2078223 77.2186063,59.7309015 78.3839263,57.6268154 C78.701562,57.0534629 79.4681164,56.2790457 78.1661049,55.9424702 C73.8514707,54.8265854 73.0411554,51.2509598 72.4698044,47.6851184 C71.5488575,41.9354498 73.3563327,36.3599394 73.8863812,30.7002852 C74.5703306,23.401293 74.5732808,16.1756821 70.6952729,9.57576899 C67.2017714,3.63090617 61.8649008,0.568460385 55.0096724,0.127194234 C54.0041537,0.0626186999 52.9996184,0.0151654664 52,0 C51.0003816,0.0151654664 49.9958463,0.0626186999 48.9903276,0.127194234 C42.1346075,0.568460385 36.7982286,3.63090617 33.3047271,9.57576899 C29.4267192,16.1756821 29.4296694,23.401293 30.1131271,30.7002852 C30.6431756,36.3599394 32.4511425,41.9354498 31.5297039,47.6851184 C30.9583529,51.2509598 30.1485293,54.8265854 25.8338951,55.9424702 C24.5318836,56.2790457 25.298438,57.0534629 25.615582,57.6268154 C26.780902,59.7309015 28.6375468,61.2078223 30.5635208,62.7204552 C29.6076634,63.5609156 28.5342906,63.6563113 27.4973034,63.8451458 C24.5176244,64.3866997 21.5463043,64.9796205 18.555808,65.4517068 C14.4575202,66.0979514 11.7526994,68.4304979 10.1502615,72.1308717 C7.79651177,77.5659792 6.26291133,83.2677053 6.00919609,89.1479926 C5.23477458,107.105372 5.95560121,125.137601 1.7142298,142.863096 C-0.418748306,151.776477 -0.0465342843,161.011756 0.171778828,170.142835 C0.285852346,174.916043 0.144735537,179.681424 0.643315482,184.470287 C1.23335092,190.137768 0.49088966,195.886948 2.64697749,201.451206 C4.54836669,206.357479 7.2630214,210.525047 11.3362327,213.830141 C12.1381892,214.480788 13.051269,215.496874 14.1133328,214.582054 C15.1581873,213.6824 14.6645243,212.379148 14.0754722,211.427148 C12.8919595,209.513853 11.8038358,207.547235 11.0908763,205.437767 C10.0558558,202.373854 8.62010291,199.322171 9.53367444,195.834603 C10.7294796,196.320876 11.0648164,197.297336 11.4665322,198.149048 C12.26308,199.837796 12.928345,201.587696 13.67769,203.299436 C13.9137042,203.838055 14.2859182,204.315523 14.987077,204.086573 C15.470906,203.929048 15.448288,203.50099 15.3779755,203.077825 C14.4363772,197.403494 13.7986473,191.630833 10.1846802,186.80528 C9.41763414,185.780877 9.16047703,184.710488 9.17473622,183.403812 C9.24849065,176.499122 10.8779718,169.829252 12.3299507,163.16085 C14.2731341,154.237685 15.9709611,145.297398 16.919443,136.207413 C18.1614676,124.299098 19.8833877,112.448509 21.6294009,100.60379 C21.7164311,100.012826 21.6407099,99.2462364 22.6924481,99.1596465 C23.3473874,101.602754 24.6292394,103.759675 25.9882877,105.884308 C26.6933801,106.986006 27.2086777,108.154725 27.3040667,109.514236 C27.5100875,112.440192 27.836082,115.357343 28.07898,118.280854 C29.0259868,129.675989 28.4723369,140.67242 23.4427765,151.448707 C17.817772,163.500361 17.1466067,176.590604 18.3689634,189.734171 C18.7215096,193.522603 19.1369929,197.304185 19.6478652,201.081854 C20.1921729,205.106573 21.0580499,209.04617 21.8113285,213.014141 C23.8007313,223.491032 27.0685443,233.707664 28.4448019,244.306368 C29.4729387,252.223231 30.2488353,260.139604 29.2502003,268.175834 C28.2151798,276.508524 27.7033241,284.924379 28.3882569,293.313817 C29.6027465,308.186248 32.5067042,322.839513 34.4975821,337.613123 C35.6865035,346.436 36.4860016,355.268661 35.1987409,364.161495 C34.6972108,367.627538 34.2817275,371.1063 33.87952,374.585063 C33.657765,376.502271 34.4026848,377.98653 36.282931,378.650875 C39.7257878,379.866559 43.2999275,380.308314 46.9202866,379.845033 C49.0340885,379.574501 50.1694151,377.913149 49.9152081,375.80417 C49.7790083,374.675566 49.5901969,373.532775 49.2465013,372.452602 C46.2471545,363.02115 45.4181547,353.281007 45.6531855,343.501727 C45.929027,332.012174 47.8368083,320.640031 48.9662345,309.210161 C50.1227039,297.502911 50.7766599,285.810336 48.7272701,274.117762 C47.7964892,268.808381 47.1784271,263.439316 48.0605301,258.063892 C48.8944468,252.981504 49.4235119,247.904497 49.2401092,242.742368 C48.6343395,225.697852 49.8498125,208.707637 50.8995839,191.714488 C50.9507203,190.888704 50.6832376,189.659322 52,189.650027 C53.3167624,189.659322 53.0492797,190.888704 53.0999244,191.714488 C54.1501875,208.707637 55.3656605,225.697852 54.7598908,242.742368 C54.5764881,247.904497 55.1055532,252.981504 55.9394699,258.063892 C56.8215729,263.439316 56.2035108,268.808381 55.2727299,274.117762 C53.2228484,285.810336 53.8772961,297.502911 55.0337655,309.210161 C56.1631917,320.640031 58.0704813,332.012174 58.3468145,343.501727 C58.5813536,353.281007 57.7528455,363.02115 54.7534987,372.452602 C54.4098031,373.532775 54.2209917,374.675566 54.0847919,375.80417 C53.8305849,377.913149 54.9654198,379.574501 57.0797134,379.845033 C60.6995808,380.308314 64.2742122,379.866559 67.717069,378.650875 C69.5968235,377.98653 70.3417433,376.502271 70.12048,374.585063 C69.7182725,371.1063 69.3022975,367.627538 68.8007674,364.161495 C67.5135068,355.268661 68.3134965,346.436 69.5024179,337.613123 C71.4932958,322.839513 74.3972535,308.186248 75.6117431,293.313817 C76.2966759,284.924379 75.7848202,276.508524 74.749308,268.175834 C73.750673,260.139604 74.5265696,252.223231 75.5547064,244.306368 C76.9314557,233.707664 80.1992687,223.491032 82.1881798,213.014141 C82.9414584,209.04617 83.8073354,205.106573 84.3521348,201.081854 C84.8630071,197.304185 85.2784904,193.522603 85.6310366,189.734171 C86.8529016,176.590604 86.182228,163.500361 80.5572235,151.448707 C75.5276631,140.67242 74.9740132,129.675989 75.9205284,118.280854 C76.1634263,115.357343 76.4899125,112.440192 76.6954416,109.514236 C76.7913223,108.154725 77.3066199,106.986006 78.0117123,105.884308 C79.3702689,103.759675 80.6526126,101.602754 81.3070602,99.1596465 C82.3587984,99.2462364 82.2835689,100.012826 82.3705991,100.60379 C84.1161206,112.448509 85.8385324,124.299098 87.080557,136.207413 C88.0285472,145.297398 89.7268659,154.237685 91.6695576,163.16085 C93.1220282,169.829252 94.7515094,176.499122 94.8252638,183.403812 C94.839523,184.710488 94.5823659,185.780877 93.8153198,186.80528 C90.2013527,191.630833 89.5636228,197.403494 88.6220245,203.077825 C88.551712,203.50099 88.529094,203.929048 89.012923,204.086573 C89.7135901,204.315523 90.0862958,203.838055 90.32231,203.299436 C91.071655,201.587696 91.7364283,199.837796 92.5329761,198.149048 C92.9346919,197.297336 93.2700287,196.320876 94.4663256,195.834603 C95.3798971,199.322171 93.9436525,202.373854 92.908632,205.437767 C92.1961642,207.547235 91.1080405,209.513853 89.9240361,211.427148 C89.334984,212.379148 88.8418127,213.6824 89.8861755,214.582054 C90.948731,215.496874 91.8618108,214.480788 92.6637673,213.830141 C96.7369786,210.525047 99.4516333,206.357479 101.353023,201.451206 C103.50911,195.886948 102.766649,190.137768 103.356685,184.470287 C103.855264,179.681424 103.714148,174.916043 103.828221,170.142835 C104.046534,161.011756 104.418748,151.776477 102.28577,142.863096" opacity=".64" transform="translate(14 1)"/>
</svg>
