<?xml version="1.0" encoding="UTF-8"?>
<svg width="113px" height="105px" viewBox="0 0 113 105" version="1.1" xmlns="http://www.w3.org/2000/svg" xmlns:xlink="http://www.w3.org/1999/xlink">
    <!-- Generator: Sketch 49.1 (51147) - http://www.bohemiancoding.com/sketch -->
    <title>Fill 1</title>
    <desc>Created with Sketch.</desc>
    <defs></defs>
    <g id="Page-1" stroke="none" stroke-width="1" fill="none" fill-rule="evenodd">
        <path d="M112.913942,56.4571019 C112.913942,25.2766875 87.6372546,0 56.4568403,0 C25.2766875,0 0,25.2766875 0,56.4571019 C0,76.1771713 10.1129769,93.5326111 25.4331088,103.628586 C25.5892685,103.718044 25.7451667,103.808287 25.9005417,103.899315 C27.3193194,104.871847 27.3546319,104.874986 28.0548657,103.312343 C29.9136111,99.1632546 32.5031944,95.5833519 36.1390741,92.8077894 C37.0407199,92.119588 37.9300718,91.3965972 38.2253889,90.25875 C38.4901019,89.239919 38.9815995,88.3197014 39.3049051,87.3322593 C39.4668194,86.8373611 39.7406875,86.5200718 40.2491875,86.3547569 C41.9622361,85.7973426 43.6569745,85.1826435 45.3755162,84.6435394 C48.6104028,83.6286319 48.5965394,83.644588 48.5039421,80.2344468 C48.4843241,79.5164259 48.2719259,79.1394977 47.5533819,78.9242222 C45.5617569,78.3270486 43.5902731,77.6678819 41.5942014,77.0788171 C38.1994931,76.07725 34.8688704,74.8617153 31.4885486,73.8091412 C29.4650116,73.1790093 29.2165162,72.8630278 29.1213032,70.736169 C28.9965324,67.9454352 29.355412,65.1785046 29.4234213,62.3974491 C29.4846296,59.8873843 29.6698241,57.372088 29.9588634,54.877456 C30.4665787,50.4942593 30.8338287,46.0974606 31.4472199,41.7226343 C32.1736111,36.5455602 32.5644028,31.318787 34.3716181,26.3501875 C36.0124722,21.8382963 38.6059792,17.9481667 42.3974954,15.0255995 C46.7430255,11.6758819 51.6812824,10.0073009 57.2875995,10.1781088 C62.8952245,10.3489167 67.6864769,12.3465579 71.8329491,15.9510486 C77.179,20.5984352 79.5622014,26.8275602 80.6207917,33.6046829 C81.3014074,37.9609375 81.826125,42.3464884 82.3139606,46.7354398 C82.7536667,50.692794 83.2271157,54.6590417 83.4573009,58.6192731 C83.7055347,62.8876389 84.2192662,67.1651597 83.861956,71.4740694 C83.7622963,72.6739097 83.4633171,73.3165972 82.3351481,73.6132222 C81.5917546,73.8086181 80.8685023,74.0803935 80.134787,74.313456 C75.8227384,75.6846273 71.5051968,77.0393194 67.1996875,78.4303704 C64.6127199,79.2660995 64.6414931,79.2909491 64.7024398,82.0039954 C64.7204884,82.8138287 64.9906944,83.2755069 65.7989583,83.5326343 C67.4518449,84.0581366 69.0361991,84.958213 70.7199514,85.1917986 C73.2279236,85.5399537 74.3377824,86.9833194 74.864331,89.2006829 C74.894412,89.3272847 74.8651157,89.4834444 74.9292014,89.584412 C75.5857523,90.6160602 75.5462546,91.9456412 76.7018889,92.8067431 C80.4345509,95.5877986 83.0534306,99.3249074 84.9427801,103.507738 C85.3877176,104.492565 85.706838,104.673051 86.1970278,104.45019 C102.233873,94.4915417 112.913942,76.7230764 112.913942,56.4571019" id="Fill-1" fill="#FED9DE"></path>
    </g>
</svg>