<?xml version="1.0" encoding="UTF-8"?>
<svg width="123px" height="123px" viewBox="0 0 123 123" version="1.1" xmlns="http://www.w3.org/2000/svg" xmlns:xlink="http://www.w3.org/1999/xlink">
    <!-- Generator: Sketch 49.1 (51147) - http://www.bohemiancoding.com/sketch -->
    <title>Group 23</title>
    <desc>Created with Sketch.</desc>
    <defs></defs>
    <g id="Page-1" stroke="none" stroke-width="1" fill="none" fill-rule="evenodd">
        <g id="Group-23">
            <path d="M117.913942,61.4571019 C117.913942,30.2766875 92.6372546,5 61.4568403,5 C30.2766875,5 5,30.2766875 5,61.4571019 C5,81.1771713 15.1129769,98.5326111 30.4331088,108.628586 C30.5892685,108.718044 30.7451667,108.808287 30.9005417,108.899315 C32.3193194,109.871847 32.3546319,109.874986 33.0548657,108.312343 C34.9136111,104.163255 37.5031944,100.583352 41.1390741,97.8077894 C42.0407199,97.119588 42.9300718,96.3965972 43.2253889,95.25875 C43.4901019,94.239919 43.9815995,93.3197014 44.3049051,92.3322593 C44.4668194,91.8373611 44.7406875,91.5200718 45.2491875,91.3547569 C46.9622361,90.7973426 48.6569745,90.1826435 50.3755162,89.6435394 C53.6104028,88.6286319 53.5965394,88.644588 53.5039421,85.2344468 C53.4843241,84.5164259 53.2719259,84.1394977 52.5533819,83.9242222 C50.5617569,83.3270486 48.5902731,82.6678819 46.5942014,82.0788171 C43.1994931,81.07725 39.8688704,79.8617153 36.4885486,78.8091412 C34.4650116,78.1790093 34.2165162,77.8630278 34.1213032,75.736169 C33.9965324,72.9454352 34.355412,70.1785046 34.4234213,67.3974491 C34.4846296,64.8873843 34.6698241,62.372088 34.9588634,59.877456 C35.4665787,55.4942593 35.8338287,51.0974606 36.4472199,46.7226343 C37.1736111,41.5455602 37.5644028,36.318787 39.3716181,31.3501875 C41.0124722,26.8382963 43.6059792,22.9481667 47.3974954,20.0255995 C51.7430255,16.6758819 56.6812824,15.0073009 62.2875995,15.1781088 C67.8952245,15.3489167 72.6864769,17.3465579 76.8329491,20.9510486 C82.179,25.5984352 84.5622014,31.8275602 85.6207917,38.6046829 C86.3014074,42.9609375 86.826125,47.3464884 87.3139606,51.7354398 C87.7536667,55.692794 88.2271157,59.6590417 88.4573009,63.6192731 C88.7055347,67.8876389 89.2192662,72.1651597 88.861956,76.4740694 C88.7622963,77.6739097 88.4633171,78.3165972 87.3351481,78.6132222 C86.5917546,78.8086181 85.8685023,79.0803935 85.134787,79.313456 C80.8227384,80.6846273 76.5051968,82.0393194 72.1996875,83.4303704 C69.6127199,84.2660995 69.6414931,84.2909491 69.7024398,87.0039954 C69.7204884,87.8138287 69.9906944,88.2755069 70.7989583,88.5326343 C72.4518449,89.0581366 74.0361991,89.958213 75.7199514,90.1917986 C78.2279236,90.5399537 79.3377824,91.9833194 79.864331,94.2006829 C79.894412,94.3272847 79.8651157,94.4834444 79.9292014,94.584412 C80.5857523,95.6160602 80.5462546,96.9456412 81.7018889,97.8067431 C85.4345509,100.587799 88.0534306,104.324907 89.9427801,108.507738 C90.3877176,109.492565 90.706838,109.673051 91.1970278,109.45019 C107.233873,99.4915417 117.913942,81.7230764 117.913942,61.4571019" id="Fill-1" fill="#FF485D"></path>
            <circle id="Oval-3" stroke="#FF485D" stroke-width="2" cx="61.5" cy="61.5" r="60.5"></circle>
        </g>
    </g>
</svg>