<?xml version="1.0" encoding="UTF-8"?>
<svg width="123px" height="123px" viewBox="0 0 123 123" version="1.1" xmlns="http://www.w3.org/2000/svg" xmlns:xlink="http://www.w3.org/1999/xlink">
    <!-- Generator: Sketch 49.1 (51147) - http://www.bohemiancoding.com/sketch -->
    <title>Group 22</title>
    <desc>Created with Sketch.</desc>
    <defs></defs>
    <g id="Page-1" stroke="none" stroke-width="1" fill="none" fill-rule="evenodd">
        <g id="Group-22">
            <path d="M30.5510698,108.7731 C15.1626972,98.6789867 5,81.2742269 5,61.495842 C5,42.6302067 14.2463473,25.9241716 28.4544756,15.662303 C29.7642838,14.9064929 31.067083,14.1654554 32.2837573,13.3939521 C34.9222901,11.7208815 37.6572247,10.2706832 40.4837131,9.03382826 C46.7778942,6.51007038 53.6317153,5.086199 60.8073903,5 C61.7965064,5.00990841 62.7854643,5.03649011 63.7734812,5.06848765 C64.3492253,5.08713633 64.9300573,5.10947605 65.5149045,5.13628919 C94.8453394,7.19548854 118,31.6416349 118,61.495842 C118,78.8437646 110.181521,94.3655836 97.8760252,104.729836 C96.208981,105.977641 94.509843,107.212905 92.8232777,108.483554 C91.9644198,109.130621 91.3015443,109.063706 90.9199741,107.957975 C88.6528577,101.389423 83.3639302,97.9455455 77.5191056,95.1400729 C76.3174408,94.5633865 75.4499207,94.0360746 75.6599792,92.5596012 C75.7398881,91.9989398 75.5482367,91.5162383 75.1307183,91.1045669 C73.6416848,89.6363227 72.1695426,88.1514037 70.687872,86.6755801 C70.3916245,86.3804153 70.1001412,86.059264 69.6059622,86.2346737 C69.287193,86.3479321 69.0611093,86.2901118 68.8934956,85.9457891 C68.1990031,84.5199897 69.1761002,80.8569586 70.5148444,79.8603716 C76.6821197,75.2683187 81.032497,69.4713527 82.5444854,61.7738983 C82.6421518,61.2766876 82.9587555,60.768216 83.3045941,60.3827477 C85.7624956,57.6448404 86.2356687,54.5056563 85.2078977,51.0799697 C84.9937246,50.3657707 84.9751009,49.6691126 84.996973,48.9596778 C85.171733,43.2885304 84.2977162,37.7061706 83.5228818,32.1216453 C83.2710281,30.3075624 82.6848132,28.5378734 82.2222513,26.7554076 C81.4818491,23.9009935 79.1725045,22.3597702 76.9159993,20.9928738 C72.7410318,18.4639423 68.3490759,16.3611913 63.4939084,15.3548594 C61.1945254,14.8782214 58.9845796,15.0464848 56.8110151,15.7331813 C51.6836378,17.3530141 46.8730807,19.5636096 42.4988824,22.8039249 C38.9748797,25.4142812 37.7156112,29.0279378 36.9503052,33.007356 C36.2798503,36.493245 36.6824264,40.0259098 36.5068001,44.8003022 C36.2989072,47.028222 36.7616856,50.5136779 36.1050903,54.049158 C35.6823745,56.3245034 36.2904615,59.0167176 38.1346455,60.8314501 C39.3553672,62.0324652 39.9718998,63.4329276 40.4608814,64.9399352 C42.5833389,71.4799021 46.7139127,76.4591557 52.3027691,80.3110229 C52.8744748,80.7051534 53.0912466,81.1428114 53.0789029,81.7903114 C53.0609288,82.745753 53.0879982,83.7022773 53.0706738,84.6579353 C53.0557315,85.4786795 53.2426186,86.0402071 51.8776713,86.3825809 C50.5705441,86.7102289 49.5778551,88.3426219 48.4786209,89.4331939 C47.3159361,90.5865669 45.8725957,91.5511037 46.2089059,93.5997158 C46.3425205,94.4130971 45.4033206,94.7420445 44.794584,95.0257318 C41.8784517,96.3854819 39.2633312,98.2171057 36.6274214,100.029456 C33.8841002,101.915435 32.5483878,104.795186 31.2863041,107.667358 C31.0200071,108.273522 30.8030791,108.629455 30.5510698,108.7731 Z" id="Combined-Shape-Copy" fill="#15A3FF"></path>
            <circle id="Oval-3-Copy" stroke="#15A3FF" stroke-width="2" cx="61.5" cy="61.5" r="60.5"></circle>
        </g>
    </g>
</svg>