<?xml version="1.0" encoding="UTF-8"?>
<svg width="113px" height="104px" viewBox="0 0 113 104" version="1.1" xmlns="http://www.w3.org/2000/svg" xmlns:xlink="http://www.w3.org/1999/xlink">
    <!-- Generator: Sketch 49.1 (51147) - http://www.bohemiancoding.com/sketch -->
    <title>男性@</title>
    <desc>Created with Sketch.</desc>
    <defs></defs>
    <g id="Page-1" stroke="none" stroke-width="1" fill="none" fill-rule="evenodd">
        <path d="M25.5510698,103.7731 C10.1626972,93.6789867 0,76.2742269 0,56.495842 C0,37.6302067 9.24634733,20.9241716 23.4544756,10.662303 C24.7642838,9.90649289 26.067083,9.1654554 27.2837573,8.39395208 C29.9222901,6.72088152 32.6572247,5.27068315 35.4837131,4.03382826 C41.7778942,1.51007038 48.6317153,0.0861990009 55.8073903,2.36620619e-14 C56.7965064,0.00990840806 57.7854643,0.0364901137 58.7734812,0.068487647 C59.3492253,0.0871363349 59.9300573,0.109476055 60.5149045,0.136289194 C89.8453394,2.19548854 113,26.6416349 113,56.495842 C113,73.8437646 105.181521,89.3655836 92.8760252,99.7298357 C91.208981,100.977641 89.509843,102.212905 87.8232777,103.483554 C86.9644198,104.130621 86.3015443,104.063706 85.9199741,102.957975 C83.6528577,96.3894227 78.3639302,92.9455455 72.5191056,90.1400729 C71.3174408,89.5633865 70.4499207,89.0360746 70.6599792,87.5596012 C70.7398881,86.9989398 70.5482367,86.5162383 70.1307183,86.1045669 C68.6416848,84.6363227 67.1695426,83.1514037 65.687872,81.6755801 C65.3916245,81.3804153 65.1001412,81.059264 64.6059622,81.2346737 C64.287193,81.3479321 64.0611093,81.2901118 63.8934956,80.9457891 C63.1990031,79.5199897 64.1761002,75.8569586 65.5148444,74.8603716 C71.6821197,70.2683187 76.032497,64.4713527 77.5444854,56.7738983 C77.6421518,56.2766876 77.9587555,55.768216 78.3045941,55.3827477 C80.7624956,52.6448404 81.2356687,49.5056563 80.2078977,46.0799697 C79.9937246,45.3657707 79.9751009,44.6691126 79.996973,43.9596778 C80.171733,38.2885304 79.2977162,32.7061706 78.5228818,27.1216453 C78.2710281,25.3075624 77.6848132,23.5378734 77.2222513,21.7554076 C76.4818491,18.9009935 74.1725045,17.3597702 71.9159993,15.9928738 C67.7410318,13.4639423 63.3490759,11.3611913 58.4939084,10.3548594 C56.1945254,9.87822138 53.9845796,10.0464848 51.8110151,10.7331813 C46.6836378,12.3530141 41.8730807,14.5636096 37.4988824,17.8039249 C33.9748797,20.4142812 32.7156112,24.0279378 31.9503052,28.007356 C31.2798503,31.493245 31.6824264,35.0259098 31.5068001,39.8003022 C31.2989072,42.028222 31.7616856,45.5136779 31.1050903,49.049158 C30.6823745,51.3245034 31.2904615,54.0167176 33.1346455,55.8314501 C34.3553672,57.0324652 34.9718998,58.4329276 35.4608814,59.9399352 C37.5833389,66.4799021 41.7139127,71.4591557 47.3027691,75.3110229 C47.8744748,75.7051534 48.0912466,76.1428114 48.0789029,76.7903114 C48.0609288,77.745753 48.0879982,78.7022773 48.0706738,79.6579353 C48.0557315,80.4786795 48.2426186,81.0402071 46.8776713,81.3825809 C45.5705441,81.7102289 44.5778551,83.3426219 43.4786209,84.4331939 C42.3159361,85.5865669 40.8725957,86.5511037 41.2089059,88.5997158 C41.3425205,89.4130971 40.4033206,89.7420445 39.794584,90.0257318 C36.8784517,91.3854819 34.2633312,93.2171057 31.6274214,95.0294561 C28.8841002,96.9154353 27.5483878,99.7951863 26.2863041,102.667358 C26.0200071,103.273522 25.8030791,103.629455 25.5510698,103.7731 Z" id="Combined-Shape-Copy" fill="#D3ECFE"></path>
    </g>
</svg>